<?xml version="1.0" standalone="no"?>
<!DOCTYPE svg PUBLIC "-//W3C//DTD SVG 1.1//EN" "http://www.w3.org/Graphics/SVG/1.1/DTD/svg11.dtd" >
<svg xmlns="http://www.w3.org/2000/svg">
<metadata></metadata>
<defs>
<font id="motiva_sans_semibolditalic" horiz-adv-x="1497" >
<font-face units-per-em="2048" ascent="1540" descent="-508" />
<missing-glyph horiz-adv-x="573" />
<glyph horiz-adv-x="2048" />
<glyph horiz-adv-x="2048" />
<glyph unicode="&#xd;" horiz-adv-x="2048" />
<glyph unicode=" "  horiz-adv-x="573" />
<glyph unicode="&#x09;" horiz-adv-x="573" />
<glyph unicode="&#xa0;" horiz-adv-x="573" />
<glyph unicode="!" horiz-adv-x="653" d="M90 158q14 78 64 115.5t116 37.5q79 0 123.5 -49t30.5 -141q-14 -78 -64.5 -117t-115.5 -39q-77 0 -123.5 51.5t-30.5 141.5zM205 459l137 979h299l-213 -979h-223z" />
<glyph unicode="&#x22;" horiz-adv-x="835" d="M223 985l45 455h219l-116 -455h-148zM575 985l46 455h221l-119 -455h-148z" />
<glyph unicode="#" horiz-adv-x="1388" d="M123 391l29 160h290l107 346h-295l29 162h315l115 375h166l-113 -375h289l112 375h166l-112 -375h301l-29 -162h-319l-105 -346h320l-27 -160h-340l-117 -391h-166l117 391h-293l-119 -391h-170l119 391h-270zM610 551h293l105 346h-291z" />
<glyph unicode="$" horiz-adv-x="1183" d="M8 90l131 219q179 -98 365 -98q142 0 218.5 53.5t76.5 132.5q0 60 -62.5 103t-218.5 106q-75 30 -129 60t-100.5 70.5t-70 92t-23.5 113.5q0 186 136 304.5t349 139.5l29 207h200l-47 -209q106 -10 194.5 -44t137.5 -80l-150 -201q-62 47 -148 76.5t-169 29.5 q-108 0 -181 -47t-73 -121q0 -25 12.5 -47.5t29 -38.5t52.5 -36.5t62 -32.5t80 -35q8 -3 12 -5t11 -5t13 -6q182 -78 261 -154.5t79 -183.5q0 -191 -147.5 -325.5t-374.5 -158.5l-24 -196h-201l43 196q-207 18 -373 121z" />
<glyph unicode="%" horiz-adv-x="1603" d="M100 0l1225 1434h162l-1223 -1434h-164zM115 1038q0 191 116.5 305.5t284.5 114.5q127 0 204 -76.5t77 -210.5q0 -190 -116.5 -303.5t-287.5 -113.5q-127 0 -202.5 75t-75.5 209zM301 1047q0 -70 30.5 -108t88.5 -38q88 0 137 68t49 200q0 142 -114 142 q-84 0 -137.5 -68.5t-53.5 -195.5zM799 262q0 191 117.5 306.5t285.5 115.5q127 0 204 -76.5t77 -212.5q0 -190 -116.5 -304t-287.5 -114q-127 0 -203.5 75.5t-76.5 209.5zM987 270q0 -70 30.5 -107.5t88.5 -37.5q87 0 136.5 68.5t49.5 201.5q0 140 -114 140q-83 0 -137 -69 t-54 -196z" />
<glyph unicode="&#x26;" horiz-adv-x="1527" d="M156 276q0 128 76.5 230.5t240.5 204.5l33 20q-73 86 -109.5 155.5t-36.5 155.5q0 183 132.5 302.5t353.5 119.5q158 0 252 -78t94 -200q0 -131 -74.5 -232.5t-210.5 -191.5l-53 -35l199 -217q20 29 41 63l147 230l189 -88l-125 -203q-65 -104 -109 -162l203 -221 l-180 -162l-185 197q-203 -189 -467 -189q-198 0 -304.5 80.5t-106.5 220.5zM428 334q0 -59 43 -93t127 -34q148 0 289 117l-244 262l-55 -37q-86 -57 -123 -107.5t-37 -107.5zM612 1067q0 -50 26 -92.5t85 -106.5l47 31q178 114 178 242q0 56 -39 82t-102 26 q-92 0 -143.5 -49.5t-51.5 -132.5z" />
<glyph unicode="'" horiz-adv-x="497" d="M279 987l43 453h260l-115 -453h-188z" />
<glyph unicode="(" horiz-adv-x="749" d="M135 596q48 683 637 1020l94 -113q-115 -91 -170 -146q-304 -304 -334 -765q-10 -116 2.5 -220.5t35 -173.5t61 -136t64.5 -99t61 -69l-137 -113q-363 277 -314 815z" />
<glyph unicode=")" horiz-adv-x="749" d="M-61 -106q31 23 55 42.5t76.5 69.5t94 99t93 127t87.5 158.5t64 188t35 220.5q38 433 -221 704l137 113q41 -31 79.5 -68.5t89.5 -111t85 -158t53 -211.5t7 -270q-9 -130 -43 -251t-78.5 -212.5t-106 -176t-115 -140.5t-117.5 -108.5t-101.5 -78t-77.5 -49.5z" />
<glyph unicode="*" horiz-adv-x="903" d="M252 1126l192 86l-163 95l88 120l155 -110l23 207h158l-60 -207l189 117l55 -136l-195 -86l170 -88l-98 -131l-156 113l-16 -203h-158l53 203l-182 -113z" />
<glyph unicode="+" horiz-adv-x="1445" d="M203 633l28 162h424l80 448h164l-80 -448h426l-28 -162h-426l-80 -451h-164l80 451h-424z" />
<glyph unicode="," horiz-adv-x="604" d="M35 -215q125 103 182 225q-49 0 -84 44.5t-22 111.5q10 60 50.5 88.5t92.5 28.5q68 0 109.5 -49.5t25.5 -141.5q-18 -101 -88.5 -203.5t-183.5 -177.5z" />
<glyph unicode="-" horiz-adv-x="851" d="M102 528l29 168h647l-30 -168h-646z" />
<glyph unicode="." horiz-adv-x="643" d="M102 139q11 66 54.5 99.5t99.5 33.5q70 0 111 -44.5t28 -125.5q-13 -68 -57 -102.5t-102 -34.5q-68 0 -108 46t-26 128z" />
<glyph unicode="/" horiz-adv-x="755" d="M-18 -92l804 1632h213l-798 -1632h-219z" />
<glyph unicode="0" horiz-adv-x="1386" d="M96 539q0 107 23 216.5t65.5 212.5t109.5 193t150 157.5t191.5 106.5t228.5 39q243 0 367.5 -153.5t124.5 -411.5q0 -128 -33 -259t-99.5 -251t-157 -214t-215.5 -150t-265 -56q-241 0 -365.5 151.5t-124.5 418.5zM379 565q0 -358 252 -358q85 0 159.5 44.5t125 115.5 t87 160t53.5 178t17 169q0 165 -61 259t-191 94q-74 0 -139.5 -31t-112.5 -83t-84.5 -119t-60 -142t-34 -147.5t-11.5 -139.5z" />
<glyph unicode="1" horiz-adv-x="1142" d="M57 0l43 240h332l156 886l-303 -131l-68 205l494 242h207l-213 -1202h315l-45 -240h-918z" />
<glyph unicode="2" horiz-adv-x="1255" d="M31 0l41 219l528 399q175 132 241 225.5t66 184.5q0 90 -68.5 139.5t-185.5 49.5q-186 0 -352 -105l-84 195q110 74 244 117.5t276 43.5q218 0 346.5 -98t128.5 -264q0 -70 -16.5 -130t-59 -128.5t-120 -144t-195.5 -164.5l-389 -291h676l-43 -248h-1034z" />
<glyph unicode="3" horiz-adv-x="1243" d="M-18 145l137 187q135 -115 350 -115q101 0 179.5 24t123 63t66.5 82.5t22 88.5q0 91 -70 132.5t-215 41.5h-190l37 205h151q157 0 246.5 61.5t89.5 153.5q0 74 -59 116t-164 42q-206 0 -379 -121l-100 199q221 159 528 159q235 0 350 -93.5t115 -240.5q0 -50 -17.5 -98.5 t-53 -96t-98.5 -89t-146 -68.5v-6q118 -28 187 -112t69 -203q0 -94 -44 -179.5t-126 -153.5t-213 -108.5t-291 -40.5q-151 0 -276.5 45t-208.5 125z" />
<glyph unicode="4" horiz-adv-x="1339" d="M51 340l33 186l899 922h225l-157 -893h211l-39 -215h-211l-58 -340h-270l57 340h-690zM367 555h421l99 547z" />
<glyph unicode="5" horiz-adv-x="1290" d="M47 100l127 211q148 -94 348 -94q174 0 270.5 88t96.5 215q0 96 -60.5 144.5t-171.5 48.5q-153 0 -297 -103l-159 97l129 731h921l-43 -248h-661l-62 -346q132 76 308 76q172 0 274 -98.5t102 -270.5q0 -111 -45 -213t-128 -183.5t-213.5 -130.5t-288.5 -49 q-277 0 -447 125z" />
<glyph unicode="6" horiz-adv-x="1390" d="M133 539q0 135 30 264.5t95 249t157.5 209.5t229 144t299.5 54q246 0 410 -119l-131 -200q-52 39 -130.5 62.5t-164.5 23.5t-166.5 -30t-148 -87t-116.5 -148t-69 -206q97 79 199.5 119t226.5 40q86 0 161 -24.5t133 -71t92 -121t34 -168.5q0 -112 -48 -213.5t-131 -177 t-200.5 -120t-249.5 -44.5q-233 0 -372.5 150t-139.5 414zM410 524q-7 -75 17 -144t86.5 -117.5t152.5 -49.5q140 -3 232.5 79t92.5 206q0 92 -61 141t-166 49q-100 0 -194 -43.5t-160 -120.5z" />
<glyph unicode="7" horiz-adv-x="1142" d="M129 0l780 1194h-747l43 244h1042l-39 -221l-786 -1217h-293z" />
<glyph unicode="8" horiz-adv-x="1265" d="M45 338q0 130 87 249.5t245 176.5q-82 36 -129 105t-47 163q0 79 38 154t109 136.5t185 98.5t253 37q217 0 340 -93t123 -247q0 -110 -71 -204.5t-205 -153.5q97 -37 151 -112.5t54 -178.5q0 -77 -27 -149.5t-82 -136t-131.5 -111.5t-182 -75.5t-227.5 -27.5 q-121 0 -215 30t-151.5 81.5t-87 117t-29.5 140.5zM330 401q0 -87 61 -140.5t184 -53.5q151 0 235.5 77.5t84.5 182.5q0 85 -65 137.5t-177 52.5q-79 0 -143 -24t-102 -62t-58 -82t-20 -88zM479 1022q0 -76 56 -118t155 -42q126 0 199.5 62t73.5 149q0 69 -57.5 109.5 t-151.5 40.5q-129 0 -202 -60t-73 -141z" />
<glyph unicode="9" horiz-adv-x="1259" d="M47 70l98 206q147 -69 314 -69q182 0 311 114.5t182 362.5q-103 -90 -200 -130t-222 -40q-85 0 -158 24t-131 72.5t-88 132.5t-22 193q19 229 190.5 378.5t434.5 149.5q544 0 491 -618q-39 -414 -257.5 -642.5t-561.5 -228.5q-120 0 -219.5 27t-161.5 68zM412 975 q-12 -106 42.5 -166.5t163.5 -60.5q104 0 207 47t152 127q9 76 -9 136t-56 96t-87 54.5t-106 18.5q-119 0 -207 -72t-100 -180z" />
<glyph unicode=":" horiz-adv-x="641" d="M137 143q11 71 57.5 106.5t108.5 35.5q75 0 117.5 -45t28.5 -129q-11 -71 -57.5 -107.5t-110.5 -36.5q-73 0 -115 46t-29 130zM283 958q11 68 59 104t111 36q74 0 115 -45t28 -127q-11 -72 -57 -107t-111 -35q-74 0 -116 44.5t-29 129.5z" />
<glyph unicode=";" horiz-adv-x="641" d="M41 -221q118 97 168 221q-45 6 -75 39.5t-30 85.5q0 76 49.5 117t116.5 41q52 0 88.5 -35t36.5 -103q0 -104 -75.5 -221.5t-210.5 -206.5zM244 918q0 82 54 131t122 49q56 0 91.5 -32.5t35.5 -92.5q0 -86 -53.5 -134t-126.5 -48q-51 0 -87 33t-36 94z" />
<glyph unicode="&#x3c;" horiz-adv-x="1028" d="M55 559l29 158l842 469l63 -160l-704 -389l571 -410l-125 -141z" />
<glyph unicode="=" horiz-adv-x="1376" d="M172 307l27 154h946l-29 -154h-944zM242 707l28 157h944l-26 -157h-946z" />
<glyph unicode="&#x3e;" horiz-adv-x="1024" d="M59 227l719 410l-567 389l121 162l674 -471l-29 -158l-842 -473z" />
<glyph unicode="?" horiz-adv-x="1067" d="M193 1323q89 60 218.5 97.5t262.5 37.5q191 0 295 -81.5t104 -213.5q0 -68 -24.5 -126.5t-64.5 -101.5t-89 -82t-100.5 -78.5t-97 -80.5t-81 -97.5t-49.5 -121.5h-200q13 76 43 140t66.5 108.5t78 83.5t80 71.5t70 65t50.5 71.5t19 83q0 64 -50.5 98.5t-143.5 34.5 q-173 0 -316 -88zM242 113q0 88 55 141t139 53q62 0 98.5 -36t36.5 -99q0 -88 -55.5 -142.5t-138.5 -54.5q-62 0 -98.5 37.5t-36.5 100.5z" />
<glyph unicode="@" horiz-adv-x="1873" d="M59 307q0 183 55.5 345.5t157 286t239.5 213.5t306.5 136.5t353.5 46.5q302 0 471.5 -153t169.5 -416q0 -134 -40 -255t-111.5 -212.5t-178.5 -145t-233 -53.5q-157 0 -215 103q-113 -82 -262 -82q-106 0 -176 69.5t-70 208.5q0 156 72.5 272.5t196 176t278.5 59.5 t289 -57l-127 -410q-18 -58 -12 -93.5t25.5 -50.5t49.5 -15q126 0 213.5 130.5t87.5 327.5q0 202 -123.5 310t-355.5 108q-175 0 -329 -57t-268.5 -160t-180.5 -257t-66 -339q0 -236 136 -355.5t372 -119.5q170 0 340 55l29 -176q-198 -67 -403 -67q-115 0 -214 20 t-188 66.5t-152 117t-100 178.5t-37 244zM741 434q0 -69 30.5 -104t80.5 -35q96 0 168 82q2 5 5 17.5t5 17.5l94 307q-36 18 -112 18q-121 0 -196 -88.5t-75 -214.5z" />
<glyph unicode="A" d="M-14 0l790 1434h277l297 -1434h-297l-52 297h-573l-154 -297h-288zM541 514h424l-105 619z" />
<glyph unicode="B" horiz-adv-x="1300" d="M43 0l252 1434h504q436 0 436 -301q0 -48 -13 -96.5t-42 -99t-82 -95.5t-125 -76q111 -34 170 -106.5t59 -178.5q0 -75 -22 -144.5t-69 -131t-115 -107t-167.5 -72t-218.5 -26.5h-567zM356 227h265q149 0 223 64.5t74 169.5q0 162 -220 162h-272zM461 827h217 q72 0 127 21t86 55.5t46 72.5t15 77q0 153 -215 153h-209z" />
<glyph unicode="C" horiz-adv-x="1337" d="M106 571q0 174 45.5 320.5t124.5 251t187 177.5t233 108.5t262 35.5q140 0 259 -35.5t188 -97.5l-164 -211q-123 99 -321 99q-103 0 -196 -39t-167.5 -113t-119 -193.5t-44.5 -267.5q0 -194 98 -292q96 -97 248 -97h6q201 0 381 127l101 -192q-104 -83 -246 -133 t-301 -50q-121 0 -224.5 38.5t-182 111.5t-123 189.5t-44.5 262.5z" />
<glyph unicode="D" horiz-adv-x="1415" d="M43 0l252 1434h457q184 0 321.5 -64.5t218 -200t80.5 -329.5q0 -135 -36.5 -260t-109.5 -230.5t-175 -183.5t-240.5 -122t-298.5 -44h-469zM358 244h195q126 0 229 50t167.5 133t99 186t34.5 214q0 182 -95 273.5t-267 91.5h-195z" />
<glyph unicode="E" horiz-adv-x="1232" d="M43 0l252 1434h952l-41 -230h-682l-65 -364h592l-39 -232h-594l-64 -375h682l-41 -233h-952z" />
<glyph unicode="F" horiz-adv-x="1124" d="M43 0l252 1432h889l-41 -232h-621l-73 -416h542l-41 -231h-542l-97 -553h-268z" />
<glyph unicode="G" horiz-adv-x="1470" d="M100 561q0 129 33 256.5t103 244.5t167.5 207t237 143.5t301.5 53.5q299 0 488 -170l-164 -196q-136 114 -340 114q-106 0 -196 -36t-152 -96.5t-105.5 -140t-63.5 -165.5t-20 -174q0 -190 88.5 -285.5t255.5 -95.5q91 0 168.5 32.5t130.5 82.5l49 256h-340l37 219h598 l-104 -612q-113 -108 -263.5 -168t-322.5 -60q-95 0 -180 21t-160 67t-129 113.5t-85.5 167t-31.5 221.5z" />
<glyph unicode="H" horiz-adv-x="1484" d="M43 0l252 1434h268l-104 -600h674l106 600h266l-252 -1434h-268l109 604h-676l-107 -604h-268z" />
<glyph unicode="I" horiz-adv-x="544" d="M43 0l252 1434h268l-252 -1434h-268z" />
<glyph unicode="J" horiz-adv-x="903" d="M-70 0l56 225q69 -16 178 -16q67 0 116 12.5t92 43.5t71 89t42 144l166 936h273l-168 -947q-20 -121 -60 -213t-91.5 -150t-119.5 -94.5t-138 -50.5t-152 -14q-178 0 -265 35z" />
<glyph unicode="K" horiz-adv-x="1392" d="M49 0l252 1434h268l-106 -613l635 613h360l-713 -646l504 -788h-344l-356 610l-148 -135l-84 -475h-268z" />
<glyph unicode="L" horiz-adv-x="1107" d="M43 0l252 1434h268l-209 -1194h670l-41 -240h-940z" />
<glyph unicode="M" horiz-adv-x="1773" d="M43 0l252 1434h240l317 -1076l682 1076h260l-252 -1434h-258l158 909l-572 -874h-153l-258 872l-162 -907h-254z" />
<glyph unicode="N" horiz-adv-x="1488" d="M43 0l252 1434h229l541 -973l172 973h272l-252 -1434h-227l-549 967l-170 -967h-268z" />
<glyph unicode="O" horiz-adv-x="1585" d="M102 580q0 130 36 257.5t108 240.5t172 199t238.5 136.5t295.5 50.5q289 0 445 -164q151 -159 151 -425v-17q-4 -175 -68 -336t-173.5 -283.5t-269 -196t-341.5 -73.5q-267 0 -430.5 161t-163.5 450zM387 600q0 -177 93.5 -278t252.5 -101q100 0 187 39t148.5 103 t105.5 146.5t65 170.5t21 174q0 171 -91.5 264.5t-253.5 93.5q-102 0 -190.5 -38.5t-149 -101t-104 -143t-64 -164.5t-20.5 -165z" />
<glyph unicode="P" horiz-adv-x="1243" d="M43 0l252 1434h485q231 0 348 -104t117 -283q0 -76 -21 -151t-70 -148t-120 -128.5t-179.5 -89.5t-240.5 -34h-215l-88 -496h-268zM440 727h207q82 0 144.5 26.5t96.5 69.5t51 91t17 98q0 96 -53.5 144t-173.5 48h-205z" />
<glyph unicode="Q" horiz-adv-x="1595" d="M102 580q0 130 36 257.5t108 240.5t172 199t238.5 136.5t295.5 50.5q289 0 445 -164q151 -160 151 -425v-17q-6 -275 -153.5 -503.5t-390.5 -327.5l366 -181l-162 -206l-497 329h-15q-267 0 -430.5 161t-163.5 450zM387 600q0 -177 93.5 -278t252.5 -101q100 0 187 39 t148.5 103t105.5 146.5t65 170.5t21 174q0 171 -91.5 264.5t-253.5 93.5q-102 0 -190.5 -38.5t-149 -101t-104 -143t-64 -164.5t-20.5 -165z" />
<glyph unicode="R" horiz-adv-x="1351" d="M43 0l252 1434h524q248 0 368 -98t120 -277q0 -165 -92 -302t-277 -204l248 -553h-297l-213 502h-277l-88 -502h-268zM440 733h236q74 0 133.5 18.5t97 47.5t63 67.5t36 76t10.5 75.5q0 92 -60.5 139t-195.5 47h-236z" />
<glyph unicode="S" horiz-adv-x="1218" d="M14 111l117 219q184 -103 385 -103q154 0 230.5 60t76.5 143q0 28 -11.5 50.5t-29 38t-50.5 32t-62.5 28t-80.5 31.5t-89 37q-72 32 -120 60.5t-94 70.5t-68.5 99.5t-22.5 130.5q0 88 34 167t100.5 143.5t177.5 102t253 37.5q151 0 271 -40t196 -101l-146 -201 q-136 107 -323 107q-131 0 -206 -52.5t-75 -132.5q0 -30 13.5 -55t33 -42t54.5 -34.5t64.5 -28.5t78 -29t80.5 -32q170 -72 243.5 -156.5t73.5 -199.5q0 -71 -23 -140t-73 -132t-121 -110.5t-173.5 -75.5t-223.5 -28q-137 0 -267 36t-223 100z" />
<glyph unicode="T" horiz-adv-x="1318" d="M197 1202l43 232h1157l-41 -232h-445l-211 -1202h-268l211 1202h-446z" />
<glyph unicode="U" horiz-adv-x="1421" d="M127 308q-6 36 -6 77q0 62 14 135l160 914h268l-160 -912q-7 -42 -8 -78q0 -92 47 -148q65 -80 213 -79q146 0 238.5 79t118.5 226l159 912h269l-160 -914q-26 -145 -91 -254.5t-156.5 -173t-197.5 -94.5t-225 -31q-95 0 -175 19t-146.5 60t-106.5 105.5t-55 156.5z" />
<glyph unicode="V" horiz-adv-x="1454" d="M195 1434h297l198 -1131l592 1131h299l-803 -1434h-286z" />
<glyph unicode="W" horiz-adv-x="2072" d="M188 1434h258l136 -1010l514 1010h196l166 -1008l459 1008h283l-705 -1434h-201l-170 1030l-534 -1030h-199z" />
<glyph unicode="X" horiz-adv-x="1409" d="M-78 0l658 737l-373 697h309l236 -510l399 510h330l-629 -697l426 -737h-320l-268 543l-438 -543h-330z" />
<glyph unicode="Y" horiz-adv-x="1323" d="M186 1434h314l219 -605l434 605h299l-647 -865l-100 -569h-273l100 571z" />
<glyph unicode="Z" horiz-adv-x="1366" d="M37 0l31 178l915 1026h-696l39 230h1046l-31 -170l-931 -1031h794l-43 -233h-1124z" />
<glyph unicode="[" horiz-adv-x="641" d="M-8 -262l340 1884h420l-33 -184h-209l-274 -1514h208l-32 -186h-420z" />
<glyph unicode="\" horiz-adv-x="802" d="M233 1540h205l193 -1632h-205z" />
<glyph unicode="]" horiz-adv-x="632" d="M-59 -262l32 186h209l267 1514h-209l32 184h420l-332 -1884h-419z" />
<glyph unicode="^" horiz-adv-x="1374" d="M113 840l610 708h201l360 -708h-274l-232 460l-391 -460h-274z" />
<glyph unicode="_" horiz-adv-x="1437" d="M88 -217l35 209h1182l-35 -209h-1182z" />
<glyph unicode="`" horiz-adv-x="716" d="M319 1540h304l86 -278h-160z" />
<glyph unicode="a" horiz-adv-x="1230" d="M78 414q0 111 30 215t86.5 189.5t132 150t171.5 100t200 35.5q112 0 256 -41h217l-149 -830q-7 -36 5.5 -54.5t37.5 -18.5q33 0 47 2l-35 -152q-53 -26 -143 -26q-80 0 -118 51q-28 37 -29 102q0 24 4 51q-58 -107 -140.5 -160t-199.5 -53q-167 0 -270 119t-103 320z M346 438q0 -111 47.5 -179.5t153.5 -68.5q103 0 177.5 84.5t100.5 231.5l62 348q-74 33 -174 33q-114 0 -199.5 -68t-126.5 -168.5t-41 -212.5z" />
<glyph unicode="b" horiz-adv-x="1173" d="M53 49l254 1487h260l-106 -608q56 86 143.5 131t190.5 45q155 0 248.5 -107.5t93.5 -281.5q0 -99 -23 -199.5t-75 -198.5t-126.5 -173.5t-187.5 -122t-248 -46.5q-109 0 -224 20t-200 54zM340 229q78 -24 164 -24q73 0 134.5 30.5t101 78.5t68 108.5t40.5 119t12 111.5 q0 102 -47.5 163t-130.5 61q-101 0 -179 -76.5t-102 -220.5z" />
<glyph unicode="c" horiz-adv-x="1048" d="M84 451q0 95 25.5 188t78 177t126.5 148t178 102t225 38q232 0 368 -129l-129 -178q-100 86 -237 86q-92 0 -166 -36.5t-118 -95.5t-67.5 -129t-23.5 -143q0 -135 69.5 -210.5t184.5 -75.5q147 0 276 102l91 -176q-78 -69 -188 -109.5t-234 -40.5q-214 0 -336.5 133.5 t-122.5 348.5z" />
<glyph unicode="d" horiz-adv-x="1234" d="M80 416q0 130 41 251t117.5 219t199.5 157t275 59q108 0 205 -37l83 475h254l-231 -1304q-6 -37 7 -56.5t38 -19.5q31 0 47 2l-37 -152q-51 -26 -137 -26q-149 0 -149 155q0 19 2 41q-103 -207 -344 -207q-168 0 -269.5 119.5t-101.5 323.5zM358 459q0 -126 52 -191 t137 -65q97 0 176 83t104 226l56 330q-72 35 -172 35q-106 0 -187 -57t-123.5 -151.5t-42.5 -209.5z" />
<glyph unicode="e" horiz-adv-x="1116" d="M80 438q2 180 82.5 330.5t234 243t351.5 92.5q160 0 252 -70q91 -68 90 -179q0 -106 -60 -189q-59 -81 -159.5 -130.5t-226.5 -75.5t-267 -26q-31 0 -45 2q6 -243 268 -243q99 0 184 30.5t142 83.5l92 -176q-188 -162 -465 -162q-221 0 -347.5 125t-125.5 344zM352 596 q4 0 11.5 -1t11.5 -1q137 0 246 23t174 67.5t65 103.5q0 43 -35.5 67t-99.5 24q-132 0 -233 -78t-140 -205z" />
<glyph unicode="f" horiz-adv-x="786" d="M-180 -424l51 209q40 -12 92 -12q123 0 146 161l159 932h-151l39 213h149l31 164q33 159 129.5 238.5t267.5 79.5q107 0 176 -31l-55 -197q-51 15 -106 15q-133 0 -156 -119l-31 -150h246l-37 -213h-246l-172 -995q-27 -165 -127 -242.5t-254 -77.5q-96 0 -151 25z" />
<glyph unicode="g" horiz-adv-x="1183" d="M20 -338l86 205q134 -92 310 -92q280 0 325 239l37 199q-70 -96 -151.5 -136t-180.5 -40q-68 0 -131.5 27t-115.5 77.5t-83.5 133.5t-31.5 186q0 125 44.5 241.5t123.5 206t195.5 143.5t250.5 54q75 0 150.5 -12.5t120.5 -30.5l205 -8l-185 -1049q-17 -98 -55.5 -175.5 t-91.5 -129.5t-121.5 -86t-144 -49t-162.5 -15q-115 0 -222 31t-172 80zM365 485q0 -113 50 -172t140 -59q89 0 169 70t103 202l56 318q-76 37 -183 37q-104 0 -181.5 -54.5t-115.5 -143.5t-38 -198z" />
<glyph unicode="h" horiz-adv-x="1273" d="M57 0l232 1272q2 10 2 19q0 48 -53 48q-38 0 -54 -8l43 197q54 20 140 20q166 0 166 -163q0 -38 -9 -85l-78 -442h11q69 121 172 183.5t219 62.5q169 0 241 -93q50 -65 50 -169q0 -45 -9 -97l-94 -516q0 -4 -1 -8.5t-1 -7.5q0 -21 12 -34t31 -13q24 0 60 6l-37 -168 q-55 -22 -154 -22q-84 0 -129 40.5t-45 116.5q0 22 8 72l92 475q8 40 8 71q0 45 -17 73q-29 46 -107 47q-132 0 -232 -134t-143 -366l-70 -377h-254z" />
<glyph unicode="i" horiz-adv-x="608" d="M106 207l156 866h260l-153 -850q-6 -26 6 -42.5t35 -16.5q31 0 59 4l-33 -170q-59 -23 -151 -23q-109 -1 -156 57q-31 38 -31 103q0 32 8 72zM295 1393q4 73 55.5 120.5t126.5 47.5q66 0 101 -36q31 -32 30 -79v-14q-3 -69 -56.5 -116.5t-131.5 -47.5q-66 0 -98 34 q-28 29 -28 76q0 7 1 15z" />
<glyph unicode="j" horiz-adv-x="602" d="M-276 -416l51 201q30 -12 96 -12q82 0 127 34t59 119l205 1153h256l-217 -1212q-28 -157 -140 -236.5t-278 -79.5q-101 0 -159 33zM293 1413q14 77 67 118.5t117 41.5q66 0 105 -41q28 -31 28 -80q0 -18 -4 -39q-13 -75 -67 -116.5t-119 -41.5q-64 0 -102 41 q-28 31 -28 81q0 17 3 36z" />
<glyph unicode="k" horiz-adv-x="1214" d="M72 0l227 1278q2 10 2 18q0 43 -47 43q-27 0 -51 -8l33 193q86 24 145 24q107 0 149 -62q26 -38 25 -105q0 -43 -10 -97l-72 -371q141 191 352 191q140 0 213.5 -74.5t73.5 -191.5q0 -50 -16 -98t-51.5 -98.5t-102.5 -99t-160 -87.5l103 -193q27 -47 49 -68.5t51 -21.5 q45 0 74 29l55 -152q-70 -74 -221 -74q-82 0 -137 33.5t-94 118.5l-119 240l-158 -60l-55 -307h-258zM420 500l178 61q248 88 248 211q0 41 -30.5 69.5t-82.5 28.5q-91 0 -178.5 -90t-130.5 -260z" />
<glyph unicode="l" horiz-adv-x="577" d="M80 203l203 1081q6 31 -8.5 46.5t-41.5 15.5q-21 0 -51 -9l35 195q77 22 162 22q175 0 175 -162q0 -36 -9 -81l-199 -1071q-1 -8 -1 -15q0 -43 46 -43q27 0 47 8l-39 -196q-74 -17 -133 -17q-41 0 -77.5 12t-66 37.5t-41.5 71.5q-6 24 -6 51q0 25 5 54z" />
<glyph unicode="m" horiz-adv-x="1900" d="M86 0l154 848q7 38 -7.5 56t-44.5 18q-24 0 -51 -9l31 166q64 19 129 19q83 0 125 -47q36 -40 36 -115q0 -12 -1 -25l-8 -43h6q86 130 180.5 183t218.5 53q51 0 95 -13t80.5 -40.5t58.5 -75t24 -111.5q130 240 377 240q161 0 239 -102q52 -68 52 -172q0 -53 -13 -115 l-98 -494q-6 -27 7 -44t38 -17q21 0 49 4l-34 -166q-48 -23 -154 -23q-101 -1 -145 59q-28 39 -29 101q0 33 8 72l94 479q6 32 6 58q0 50 -21 83q-32 50 -110 50q-43 0 -85.5 -18.5t-83 -58t-73.5 -110t-51 -164.5l-96 -526h-250l127 713q4 23 4 44q0 46 -22 76 q-32 44 -105 44q-117 0 -201 -119.5t-124 -343.5l-76 -414h-256z" />
<glyph unicode="n" horiz-adv-x="1294" d="M86 0l158 848q2 11 2 20q0 54 -56 54q-24 0 -51 -9l29 166q69 19 131 19q81 0 123 -46q36 -40 36 -115q0 -12 -1 -26l-17 -82h4q89 147 195 211t238 64q164 0 242 -93q55 -66 55 -168q0 -42 -9 -89l-102 -523q-6 -29 7 -46t38 -17q21 0 49 4l-35 -166q-52 -20 -149 -20 q-105 0 -147 58q-28 38 -27 98q0 33 8 73l94 481q6 31 6 56q-1 48 -21 78q-32 48 -114 47q-122 0 -219.5 -122t-136.5 -341l-76 -414h-254z" />
<glyph unicode="o" horiz-adv-x="1228" d="M82 444q0 129 42.5 245.5t120.5 207.5t199 145t267 54q206 0 336.5 -121.5t130.5 -341.5q0 -126 -43.5 -243.5t-122 -209.5t-198.5 -147.5t-263 -55.5q-208 0 -338.5 127t-130.5 340zM342 465q0 -126 60 -197t169 -71q154 0 250.5 122.5t96.5 290.5q0 130 -61 198.5 t-175 68.5q-103 0 -182.5 -60t-118.5 -152.5t-39 -199.5z" />
<glyph unicode="p" horiz-adv-x="1241" d="M18 -422l226 1270q2 10 2 19q0 55 -58 55q-22 0 -49 -9l29 166q74 19 139 19q159 0 159 -167q0 -14 -1 -30l-6 -43h4q72 126 165 183t212 57q168 0 261 -115.5t93 -320.5q0 -103 -26.5 -203.5t-79 -188.5t-124 -155.5t-167 -106.5t-201.5 -39q-153 0 -240 72l-82 -463 h-256zM393 244q61 -64 176 -64q161 0 263 133t102 320q0 116 -50 176.5t-139 60.5q-106 0 -187.5 -81t-108.5 -232z" />
<glyph unicode="q" horiz-adv-x="1214" d="M80 432q0 182 81 336t224.5 245t316.5 91q52 0 102.5 -7t77 -13.5t76.5 -20.5h216l-261 -1479h-227l102 604q-58 -110 -135.5 -161.5t-201.5 -51.5q-159 0 -265 123.5t-106 333.5zM348 459q0 -119 55 -194t150 -75q100 0 175 84.5t101 231.5l62 348q-74 33 -174 33 q-86 0 -157.5 -37.5t-117 -99t-70 -137t-24.5 -154.5z" />
<glyph unicode="r" horiz-adv-x="860" d="M80 0l151 821q7 38 -6.5 56t-40.5 18t-51 -8l37 192q71 21 145 21q80 0 117 -42q28 -31 28 -93q0 -20 -3 -43l-8 -64h10q61 129 137.5 187.5t179.5 58.5q69 0 125 -29l-49 -237q-50 20 -119 20q-112 0 -196 -108.5t-115 -282.5l-86 -467h-256z" />
<glyph unicode="s" horiz-adv-x="966" d="M12 84l94 199q55 -46 130.5 -70.5t150.5 -24.5q112 0 170.5 40.5t58.5 103.5q0 19 -8.5 33.5t-21 24.5t-37 20.5t-46 17.5t-60 19.5t-66.5 23.5q-119 43 -178.5 103.5t-59.5 160.5q0 155 128 262t345 107q213 0 353 -107l-105 -180q-55 38 -128 61t-142 23 q-94 0 -145.5 -41t-51.5 -92q0 -46 37 -68.5t135 -53.5q23 -7 35 -11q148 -49 213.5 -105t65.5 -163q0 -169 -139 -279.5t-367 -110.5q-109 0 -205 30.5t-156 76.5z" />
<glyph unicode="t" horiz-adv-x="833" d="M98 854l39 219h166l23 129l139 144h145l-47 -273h262l-39 -219h-262l-98 -561q-3 -16 -3 -29q0 -65 69 -65q67 0 145 30l31 -184q-133 -68 -281 -68q-238 0 -238 194q0 33 7 71l108 612h-166z" />
<glyph unicode="u" horiz-adv-x="1251" d="M121 915l33 164q70 25 163 25q177 0 177 -158q0 -36 -9 -80l-88 -473q-6 -33 -6 -60q0 -55 26 -85q39 -45 115 -45q45 0 90 19.5t89 58.5t78.5 107.5t50.5 158.5l94 532h256l-156 -872q-6 -27 5 -42t30 -15q50 0 64 2l-35 -152q-52 -25 -146 -25q-80 1 -120 35 q-32 28 -33 91q0 16 2 34l16 78h-10q-122 -238 -373 -238q-80 0 -141.5 22.5t-104.5 70.5t-56 124q-5 32 -5 69q0 52 10 114l90 477q7 36 -7.5 53t-43.5 17q-15 0 -55 -7z" />
<glyph unicode="v" horiz-adv-x="1142" d="M70 915l30 164q64 25 148 25q74 0 112 -37.5t54 -108.5q21 -84 58 -313.5t54 -390.5l418 819h262l-604 -1079h-233l-191 858q-9 39 -22 54.5t-39 15.5q-19 0 -47 -7z" />
<glyph unicode="w" horiz-adv-x="1734" d="M61 915l33 164q64 25 148 25q72 0 110 -37.5t54 -108.5q16 -69 37.5 -272t35.5 -385l355 772h217l108 -749l371 749h268l-575 -1079h-226l-106 749l-356 -749h-222l-143 858q-6 38 -20 54t-41 16q-20 0 -48 -7z" />
<glyph unicode="x" horiz-adv-x="1095" d="M-43 0l2 14l467 541l-143 266q-46 80 -101 80q-41 0 -61 -8l22 180q55 19 123 19q77 0 129 -42.5t101 -136.5l94 -184l262 344h301l-2 -10l-457 -520l183 -314q21 -35 38.5 -50t40.5 -15q35 0 62 12l-19 -174q-60 -25 -133 -25q-64 0 -111.5 38t-88.5 116l-136 240 l-266 -371h-307z" />
<glyph unicode="y" horiz-adv-x="1120" d="M-35 -399l62 190q68 -27 125 -27q60 0 106.5 43.5t87.5 131.5l51 100l-229 807q-11 41 -22.5 56.5t-36.5 15.5q-8 0 -16.5 -1t-17.5 -3t-14 -3l33 162q64 25 142 25q74 0 113 -36.5t57 -109.5l157 -667l373 788h272l-639 -1223q-81 -155 -171 -225.5t-222 -70.5 q-126 0 -211 47z" />
<glyph unicode="z" horiz-adv-x="1046" d="M2 0l29 174l647 678h-494l39 221h832l-33 -184l-664 -676h560l-37 -213h-879z" />
<glyph unicode="{" horiz-adv-x="815" d="M203 639l26 162q86 10 148 62t80 147l47 272q28 162 154 257t317 95l-23 -151q-97 -8 -161.5 -64.5t-83.5 -152.5l-58 -332q-14 -79 -75.5 -137t-122.5 -74l-7 -4q56 -15 99 -77t30 -138l-59 -334q-17 -94 26 -150t138 -65l-23 -150q-192 0 -285.5 97t-64.5 260l49 272 q35 192 -151 205z" />
<glyph unicode="|" horiz-adv-x="471" d="M-12 -190l334 1884h161l-333 -1884h-162z" />
<glyph unicode="}" horiz-adv-x="815" d="M-6 -195l31 150q97 9 159.5 64.5t81.5 150.5l62 334q12 76 77.5 138t126.5 77l-2 4q-57 15 -97.5 73t-26.5 138l59 332q18 95 -26 152t-138 65l31 151q190 0 281.5 -95t62.5 -257l-49 -272q-19 -94 24.5 -146.5t126.5 -62.5l-33 -162q-188 -13 -223 -205l-51 -272 q-30 -163 -157.5 -260t-319.5 -97z" />
<glyph unicode="~" horiz-adv-x="1261" d="M88 481q55 152 147.5 227.5t200.5 75.5q68 0 191.5 -37.5t183.5 -37.5q39 0 79.5 25t61.5 59h217q-60 -157 -164 -231.5t-217 -74.5q-64 0 -190 38t-184 38q-45 0 -75 -21.5t-58 -60.5h-193z" />
<glyph unicode="&#xa1;" horiz-adv-x="587" d="M96 -375l215 979h224l-134 -979h-305zM309 942q13 79 63.5 117.5t116.5 38.5q78 0 123 -50t29 -143q-13 -75 -63 -114t-115 -39q-78 0 -124 50.5t-30 139.5z" />
<glyph unicode="&#xa2;" horiz-adv-x="1110" d="M84 639q0 113 36.5 221t104 199.5t176.5 153.5t242 75l29 211h168l-47 -211q177 -17 292 -125l-129 -178q-100 86 -237 86q-74 0 -137 -24t-106 -64t-73.5 -92t-44.5 -108.5t-14 -114.5q0 -135 69.5 -211t184.5 -76q147 0 276 102l91 -176q-66 -59 -159 -97.5t-196 -47.5 l-24 -191h-168l43 193q-178 26 -277.5 154t-99.5 321z" />
<glyph unicode="&#xa3;" horiz-adv-x="1271" d="M23 150q79 47 119 97.5t53 131.5l47 266h-125l26 148h125l45 256q35 203 172.5 308t327.5 105q127 0 219.5 -25t169.5 -83l-160 -207q-105 80 -239 80q-99 0 -156.5 -51t-77.5 -168l-37 -215h388l-27 -148h-387l-37 -209q-16 -91 -44.5 -142.5t-90.5 -88.5q60 14 131 14 q49 0 125.5 -11t132.5 -11q84 0 186 20l9 -215q-108 -33 -267 -33q-76 0 -177.5 13.5t-160.5 13.5q-147 0 -258 -27z" />
<glyph unicode="&#xa4;" horiz-adv-x="1378" d="M8 246l201 170q-47 86 -47 207q0 237 149 399l-133 164l139 117l142 -173q147 78 317 78t285 -86l211 178l98 -118l-209 -178q49 -90 49 -209q0 -232 -139 -387l133 -162l-137 -119l-137 166q-150 -84 -332 -84q-171 0 -291 88l-201 -170zM426 655q0 -102 57.5 -158.5 t155.5 -56.5q134 0 221.5 87.5t87.5 234.5q0 100 -57.5 157.5t-155.5 57.5q-135 0 -222 -87.5t-87 -234.5z" />
<glyph unicode="&#xa5;" horiz-adv-x="1296" d="M-27 336l27 151h389l23 134v2h-389l26 151h295l-289 660h314l221 -607l440 607h293l-520 -660h291l-27 -151h-383l-4 -5l-23 -131h385l-24 -151h-387l-60 -336h-268l59 336h-389z" />
<glyph unicode="&#xa6;" horiz-adv-x="456" d="M76 338l12 72l131 747h162l-88 -491l-57 -328h-160z" />
<glyph unicode="&#xa7;" horiz-adv-x="1069" d="M63 57l101 179q47 -30 125 -49t153 -19q222 0 222 133q0 26 -15 45t-46.5 32t-62.5 21.5t-81.5 21t-85.5 23.5q-185 59 -185 220q0 98 57.5 173.5t157.5 110.5q-57 26 -90.5 79t-33.5 120q0 145 120.5 231t319.5 86t325 -65l-98 -176q-105 41 -244 41 q-101 0 -149.5 -34.5t-48.5 -90.5q0 -27 13.5 -47t49 -36t60.5 -23.5t84 -23.5q20 -5 30 -8q117 -29 180.5 -81t63.5 -146q0 -192 -225 -282q71 -26 109 -77t38 -116q0 -142 -129.5 -236t-335.5 -94q-227 0 -379 88zM403 690q0 -59 41.5 -90t114.5 -31q96 0 152.5 44 t56.5 126q0 57 -41.5 91t-114.5 34q-92 0 -150.5 -47.5t-58.5 -126.5z" />
<glyph unicode="&#xa8;" horiz-adv-x="866" d="M266 1372q11 61 49 90t91 29q56 0 86.5 -34t19.5 -101q-10 -61 -47.5 -90t-87.5 -29q-59 0 -90.5 34.5t-20.5 100.5zM649 1372q10 61 47 90t92 29q56 0 86 -34t19 -101q-10 -60 -47 -89.5t-86 -29.5q-60 0 -91.5 34.5t-19.5 100.5z" />
<glyph unicode="&#xa9;" horiz-adv-x="1673" d="M78 594q0 154 49 292t135 241.5t198.5 180t243 115.5t265.5 39q176 0 317.5 -74.5t225 -218t83.5 -331.5q0 -154 -49 -292t-135 -242t-198.5 -180t-243 -115.5t-264.5 -39.5q-177 0 -319 75t-225 218.5t-83 331.5zM229 614q0 -228 138.5 -363.5t363.5 -135.5 q142 0 271 51.5t226.5 142t155.5 224t58 288.5q0 226 -138 361t-360 135q-141 0 -271.5 -51.5t-228.5 -142.5t-156.5 -223.5t-58.5 -285.5zM457 651q0 111 38.5 200t102.5 144t143.5 84t165.5 29q157 0 248 -82l-82 -119q-43 33 -84.5 48.5t-99.5 15.5q-120 0 -199.5 -77.5 t-79.5 -209.5q0 -94 55 -147.5t146 -53.5q109 0 203 66l47 -123q-126 -90 -285 -90q-144 0 -231.5 82.5t-87.5 232.5z" />
<glyph unicode="&#xaa;" horiz-adv-x="776" d="M0 782q19 100 94 153.5t191 53.5q94 0 129 -2l8 45q5 37 -18 55.5t-80 18.5q-92 0 -158 -51l-70 112q124 105 295 105q135 0 190.5 -56.5t36.5 -166.5l-47 -267q-3 -23 7 -37t32 -14h25l-35 -137q-46 -12 -98 -12q-53 0 -86 24t-37 68q-82 -94 -203 -94q-90 0 -141.5 56 t-34.5 146zM190 791q-6 -32 11.5 -50t48.5 -18q64 0 127 55l14 78q-81 6 -92 6q-95 0 -109 -71z" />
<glyph unicode="&#xab;" horiz-adv-x="1058" d="M47 518l393 404l125 -121l-289 -281l191 -278l-148 -123zM475 518l395 404l121 -121l-286 -281l188 -278l-148 -123z" />
<glyph unicode="&#xac;" horiz-adv-x="1343" d="M145 674l29 162h1032l-98 -551h-156l68 389h-875z" />
<glyph unicode="&#xad;" horiz-adv-x="851" d="M102 528l29 168h647l-30 -168h-646z" />
<glyph unicode="&#xae;" horiz-adv-x="1673" d="M78 594q0 154 49 292t135 241.5t198.5 180t243 115.5t265.5 39q176 0 317.5 -74.5t225 -218t83.5 -331.5q0 -154 -49 -292t-135 -242t-198.5 -180t-243 -115.5t-264.5 -39.5q-177 0 -319 75t-225 218.5t-83 331.5zM229 614q0 -228 138.5 -363.5t363.5 -135.5 q142 0 271 51.5t226.5 142t155.5 224t58 288.5q0 226 -138 361t-360 135q-141 0 -271.5 -51.5t-228.5 -142.5t-156.5 -223.5t-58.5 -285.5zM520 360l131 740h269q114 0 170.5 -51.5t56.5 -133.5t-47 -143t-123 -94l115 -318h-162l-90 277h-131l-52 -277h-137zM731 762h121 q63 0 101 35.5t38 89.5q0 80 -106 80h-117z" />
<glyph unicode="&#xaf;" horiz-adv-x="1050" d="M377 1300l24 134h564l-23 -134h-565z" />
<glyph unicode="&#xb0;" horiz-adv-x="813" d="M80 1081q0 89 33.5 160t89 114.5t122 66t136.5 22.5q115 0 194.5 -66t79.5 -188q0 -88 -34 -159.5t-90 -114.5t-122.5 -66t-136.5 -23q-116 0 -194 65.5t-78 188.5zM270 1108q0 -53 29.5 -82t81.5 -29q72 0 119 44.5t47 121.5q0 54 -31.5 82.5t-85.5 28.5 q-70 0 -115 -44.5t-45 -121.5z" />
<glyph unicode="&#xb1;" horiz-adv-x="1218" d="M23 20l26 162h1016l-27 -162h-1015zM164 823l26 160h428l80 451h162l-80 -451h426l-26 -160h-426l-80 -450h-162l80 450h-428z" />
<glyph unicode="&#xb4;" horiz-adv-x="976" d="M397 1210l185 277h301l-324 -277h-162z" />
<glyph unicode="&#xb6;" horiz-adv-x="1058" d="M88 1028q0 83 23.5 152.5t74.5 128t145 92t222 33.5h391l-254 -1434h-162l224 1270h-123l-223 -1270h-164l129 735q-138 22 -210.5 97.5t-72.5 195.5z" />
<glyph unicode="&#xb7;" horiz-adv-x="546" d="M238 635q14 74 64 112.5t112 38.5q78 0 122.5 -50t30.5 -138q-13 -77 -63 -115.5t-117 -38.5q-75 0 -120 50.5t-29 140.5z" />
<glyph unicode="&#xb8;" horiz-adv-x="716" d="M63 -348q94 16 129 43t35 65q0 17 -11 28t-30 11q-17 0 -41 -12l-73 78l102 143h129l-76 -100q7 0 18 1t15 1q64 0 99.5 -35t35.5 -88q0 -91 -79.5 -162t-227.5 -84z" />
<glyph unicode="&#xba;" horiz-adv-x="813" d="M39 777.5q-16 67.5 0 152.5q16 86 55 153t93 107.5t115.5 61t127.5 20.5q64 0 119 -20.5t96.5 -60.5t58.5 -107.5t1 -153.5q-20 -113 -84 -192.5t-143.5 -114.5t-166.5 -35q-66 0 -120.5 21t-95 61t-56.5 107.5zM242 930q-14 -73 12.5 -118.5t85.5 -45.5t101 43.5 t57 120.5q12 74 -15.5 119t-85.5 45q-59 0 -100 -44.5t-55 -119.5z" />
<glyph unicode="&#xbb;" horiz-adv-x="1056" d="M61 242l287 278l-188 281l153 121l262 -404l-397 -399zM487 242l287 278l-188 281l153 121l262 -404l-397 -399z" />
<glyph unicode="&#xbc;" horiz-adv-x="2183" d="M180 608l27 160h178l82 465l-164 -57l-33 141l289 119h137l-118 -668h178l-29 -160h-547zM627 -264l716 1831h191l-719 -1831h-188zM1346 176l26 148l488 501h168l-89 -495h129l-26 -154h-129l-31 -180h-184l31 180h-383zM1559 330h194l45 254z" />
<glyph unicode="&#xbd;" horiz-adv-x="2183" d="M180 608l27 160h178l82 465l-164 -57l-33 141l289 119h137l-118 -668h178l-29 -160h-547zM627 -264l716 1831h191l-719 -1831h-188zM1360 -6l29 156l268 184q86 62 132.5 114t53.5 109q4 50 -26 76t-88 26q-99 0 -209 -65l-56 145q170 101 334 101q134 0 206.5 -63.5 t63.5 -166.5q-9 -96 -76.5 -179.5t-197.5 -164.5l-160 -102h375l-31 -170h-618z" />
<glyph unicode="&#xbe;" horiz-adv-x="2183" d="M121 670l80 149q116 -63 217 -63q176 0 186 112q6 50 -27 73.5t-112 23.5h-115l27 143h98q68 0 109 26.5t47 73.5q3 40 -25 62t-92 22q-97 0 -213 -71l-57 129q147 104 317 104q148 0 220.5 -55t64.5 -142q-3 -67 -48.5 -122.5t-129.5 -83.5q153 -43 141 -181 q-9 -127 -121.5 -206.5t-269.5 -79.5q-90 0 -168 24t-129 62zM627 -264l716 1831h191l-719 -1831h-188zM1346 176l26 148l488 501h168l-89 -495h129l-26 -154h-129l-31 -180h-184l31 180h-383zM1559 330h194l45 254z" />
<glyph unicode="&#xbf;" horiz-adv-x="1118" d="M180 -78q0 68 24.5 126.5t64.5 101.5t89 82t100.5 78.5t97 80.5t81 97.5t49.5 121.5h201q-13 -76 -43 -140t-67 -108.5t-78.5 -83.5t-80 -71.5t-70 -64.5t-50.5 -71t-19 -83q0 -64 51 -98.5t144 -34.5q172 0 315 88l72 -181q-89 -60 -218.5 -97.5t-262.5 -37.5 q-191 0 -295.5 81.5t-104.5 213.5zM682 913q0 88 56 142.5t139 54.5q62 0 98.5 -37t36.5 -100q0 -88 -55.5 -141.5t-139.5 -53.5q-62 0 -98.5 36t-36.5 99z" />
<glyph unicode="&#xc0;" d="M-14 0l790 1434h277l297 -1434h-297l-52 297h-573l-154 -297h-288zM541 514h424l-105 619zM657 1901h304l86 -279h-160z" />
<glyph unicode="&#xc1;" d="M-14 0l790 1434h277l297 -1434h-297l-52 297h-573l-154 -297h-288zM541 514h424l-105 619zM842 1565l184 276h301l-323 -276h-162z" />
<glyph unicode="&#xc2;" d="M-14 0l790 1434h277l297 -1434h-297l-52 297h-573l-154 -297h-288zM541 514h424l-105 619zM618 1587l287 268h150l180 -268h-203l-84 111l-117 -111h-213z" />
<glyph unicode="&#xc3;" d="M-14 0l790 1434h277l297 -1434h-297l-52 297h-573l-154 -297h-288zM541 514h424l-105 619zM598 1657q40 93 104 139.5t129 46.5q47 0 89 -20t75 -40t58 -20q34 0 61 25.5t55 73.5l125 -64q-39 -92 -100 -145.5t-133 -53.5q-44 0 -85 19.5t-76 39t-66 19.5q-72 0 -119 -90 z" />
<glyph unicode="&#xc4;" d="M-14 0l790 1434h277l297 -1434h-297l-52 297h-573l-154 -297h-288zM541 514h424l-105 619zM643 1733q22 118 139 118q56 0 87 -34t20 -101q-10 -61 -47.5 -90t-87.5 -29q-59 0 -90.5 35t-20.5 101zM1026 1733q19 118 139 118q56 0 86 -34t19 -101q-10 -60 -47 -89.5 t-86 -29.5q-60 0 -91.5 35t-19.5 101z" />
<glyph unicode="&#xc5;" d="M-14 0l790 1434h277l297 -1434h-297l-52 297h-573l-154 -297h-288zM541 514h424l-105 619zM784 1692q13 73 69.5 118t133.5 45q76 0 116 -45t27 -118q-12 -73 -68 -117.5t-132 -44.5q-77 0 -117.5 44.5t-28.5 117.5zM885 1692q-5 -31 10 -52.5t49 -21.5t57 21.5t29 52.5 q5 32 -10.5 52.5t-48.5 20.5q-35 0 -57.5 -20.5t-28.5 -52.5z" />
<glyph unicode="&#xc6;" horiz-adv-x="1955" d="M-29 0l987 1434h1002l-43 -240h-600l-62 -354h531l-43 -238h-531l-63 -371h610l-41 -231h-882l45 256h-430l-168 -256h-312zM602 483h320l116 662z" />
<glyph unicode="&#xc7;" horiz-adv-x="1337" d="M106 571q0 174 45.5 320.5t124.5 251t187 177.5t233 108.5t262 35.5q140 0 259 -35.5t188 -97.5l-164 -211q-123 99 -321 99q-103 0 -196 -39t-167.5 -113t-119 -193.5t-44.5 -267.5q0 -194 98 -292.5t254 -96.5q201 0 381 127l101 -192q-95 -75 -221.5 -123.5 t-270.5 -57.5l-47 -63q6 0 18 1t15 1q64 0 99.5 -35t35.5 -88q0 -91 -79.5 -162t-227.5 -84l-25 111q94 16 129 43t35 65q0 17 -11 28t-30 11q-17 0 -41 -12l-74 78l78 108q-225 21 -364.5 175.5t-139.5 422.5z" />
<glyph unicode="&#xc8;" horiz-adv-x="1232" d="M43 0l252 1434h952l-41 -230h-682l-65 -364h592l-39 -232h-594l-64 -375h682l-41 -233h-952zM502 1901h303l86 -279h-160z" />
<glyph unicode="&#xc9;" horiz-adv-x="1232" d="M43 0l252 1434h952l-41 -230h-682l-65 -364h592l-39 -232h-594l-64 -375h682l-41 -233h-952zM684 1565l184 276h301l-323 -276h-162z" />
<glyph unicode="&#xca;" horiz-adv-x="1232" d="M43 0l252 1434h952l-41 -230h-682l-65 -364h592l-39 -232h-594l-64 -375h682l-41 -233h-952zM463 1587l287 268h149l180 -268h-202l-84 111l-117 -111h-213z" />
<glyph unicode="&#xcb;" horiz-adv-x="1232" d="M43 0l252 1434h952l-41 -230h-682l-65 -364h592l-39 -232h-594l-64 -375h682l-41 -233h-952zM485 1733q11 61 49 89.5t91 28.5q56 0 86.5 -34t19.5 -101q-10 -61 -47.5 -90t-87.5 -29q-59 0 -90.5 35t-20.5 101zM868 1733q10 61 47.5 89.5t92.5 28.5q56 0 85.5 -34 t18.5 -101q-10 -60 -47 -89.5t-86 -29.5q-60 0 -91.5 35t-19.5 101z" />
<glyph unicode="&#xcc;" horiz-adv-x="544" d="M43 0l252 1434h268l-252 -1434h-268zM178 1901h303l86 -279h-159z" />
<glyph unicode="&#xcd;" horiz-adv-x="544" d="M43 0l252 1434h268l-252 -1434h-268zM360 1565l185 276h301l-324 -276h-162z" />
<glyph unicode="&#xce;" horiz-adv-x="544" d="M43 0l252 1434h268l-252 -1434h-268zM139 1587l287 268h149l181 -268h-203l-84 111l-117 -111h-213z" />
<glyph unicode="&#xcf;" horiz-adv-x="544" d="M43 0l252 1434h268l-252 -1434h-268zM162 1733q22 118 139 118q56 0 87 -34t20 -101q-10 -60 -48 -89.5t-88 -29.5q-59 0 -90 35t-20 101zM545 1733q19 118 139 118q56 0 85.5 -34t18.5 -101q-10 -60 -47 -89.5t-86 -29.5q-60 0 -91 35t-19 101z" />
<glyph unicode="&#xd0;" horiz-adv-x="1517" d="M68 633l32 188h193l108 613h457q137 0 250 -37.5t196 -110t129 -186.5t46 -260q0 -170 -59 -321.5t-166.5 -267.5t-272 -183.5t-363.5 -67.5h-468l110 633h-192zM465 244h194q126 0 229 50t167.5 133t99.5 186t35 214q0 182 -95.5 273.5t-267.5 91.5h-194l-66 -371h221 l-32 -188h-221z" />
<glyph unicode="&#xd1;" horiz-adv-x="1488" d="M43 0l252 1434h229l541 -973l172 973h272l-252 -1434h-227l-549 967l-170 -967h-268zM598 1657q40 93 104 139.5t129 46.5q47 0 89 -20t75 -40t58 -20q34 0 61 25.5t55 73.5l125 -64q-39 -92 -100 -145.5t-133 -53.5q-44 0 -85 19.5t-76 39t-66 19.5q-72 0 -119 -90z" />
<glyph unicode="&#xd2;" horiz-adv-x="1585" d="M102 580q0 130 36 257.5t108 240.5t172 199t238.5 136.5t295.5 50.5q289 0 445 -164.5t151 -441.5q-4 -175 -68 -336t-173.5 -283.5t-269 -196t-341.5 -73.5q-267 0 -430.5 161t-163.5 450zM387 600q0 -177 93.5 -278t252.5 -101q100 0 187 39t148.5 103t105.5 146.5 t65 170.5t21 174q0 171 -91.5 264.5t-253.5 93.5q-102 0 -190.5 -38.5t-149 -101t-104 -143t-64 -164.5t-20.5 -165zM694 1909h303l86 -279h-159z" />
<glyph unicode="&#xd3;" horiz-adv-x="1585" d="M102 580q0 130 36 257.5t108 240.5t172 199t238.5 136.5t295.5 50.5q289 0 445 -164.5t151 -441.5q-4 -175 -68 -336t-173.5 -283.5t-269 -196t-341.5 -73.5q-267 0 -430.5 161t-163.5 450zM387 600q0 -177 93.5 -278t252.5 -101q100 0 187 39t148.5 103t105.5 146.5 t65 170.5t21 174q0 171 -91.5 264.5t-253.5 93.5q-102 0 -190.5 -38.5t-149 -101t-104 -143t-64 -164.5t-20.5 -165zM879 1573l184 276h301l-324 -276h-161z" />
<glyph unicode="&#xd4;" horiz-adv-x="1585" d="M102 580q0 130 36 257.5t108 240.5t172 199t238.5 136.5t295.5 50.5q289 0 445 -164.5t151 -441.5q-4 -175 -68 -336t-173.5 -283.5t-269 -196t-341.5 -73.5q-267 0 -430.5 161t-163.5 450zM387 600q0 -177 93.5 -278t252.5 -101q100 0 187 39t148.5 103t105.5 146.5 t65 170.5t21 174q0 171 -91.5 264.5t-253.5 93.5q-102 0 -190.5 -38.5t-149 -101t-104 -143t-64 -164.5t-20.5 -165zM655 1595l287 269h150l180 -269h-203l-84 111l-117 -111h-213z" />
<glyph unicode="&#xd5;" horiz-adv-x="1585" d="M102 580q0 130 36 257.5t108 240.5t172 199t238.5 136.5t295.5 50.5q289 0 445 -164.5t151 -441.5q-4 -175 -68 -336t-173.5 -283.5t-269 -196t-341.5 -73.5q-267 0 -430.5 161t-163.5 450zM387 600q0 -177 93.5 -278t252.5 -101q100 0 187 39t148.5 103t105.5 146.5 t65 170.5t21 174q0 171 -91.5 264.5t-253.5 93.5q-102 0 -190.5 -38.5t-149 -101t-104 -143t-64 -164.5t-20.5 -165zM635 1665q40 93 104 139.5t129 46.5q37 0 71.5 -12.5t56.5 -27t47.5 -27t46.5 -12.5q34 0 61 25t55 73l125 -64q-39 -91 -100 -144.5t-133 -53.5 q-44 0 -85 19.5t-76.5 39t-66.5 19.5q-70 0 -118 -91z" />
<glyph unicode="&#xd6;" horiz-adv-x="1585" d="M102 580q0 130 36 257.5t108 240.5t172 199t238.5 136.5t295.5 50.5q289 0 445 -164.5t151 -441.5q-4 -175 -68 -336t-173.5 -283.5t-269 -196t-341.5 -73.5q-267 0 -430.5 161t-163.5 450zM387 600q0 -177 93.5 -278t252.5 -101q100 0 187 39t148.5 103t105.5 146.5 t65 170.5t21 174q0 171 -91.5 264.5t-253.5 93.5q-102 0 -190.5 -38.5t-149 -101t-104 -143t-64 -164.5t-20.5 -165zM678 1741q11 61 48.5 90t90.5 29q56 0 87 -34.5t20 -101.5q-10 -60 -48 -89t-88 -29q-59 0 -90 34.5t-20 100.5zM1061 1741q10 61 47 90t92 29 q56 0 86 -34.5t19 -101.5q-10 -59 -47 -88.5t-87 -29.5q-60 0 -91 34.5t-19 100.5z" />
<glyph unicode="&#xd7;" horiz-adv-x="1292" d="M49 135l467 406l-328 403l154 129l326 -403l469 403l106 -131l-469 -401l328 -406l-154 -129l-325 404l-469 -402z" />
<glyph unicode="&#xd8;" horiz-adv-x="1595" d="M88 -147l195 262q-181 163 -181 465q0 130 36 257.5t108 240.5t172 199t238.5 136.5t295.5 50.5q165 0 291 -57l164 221l135 -76l-170 -229q182 -162 176 -465q-4 -175 -68 -336t-173.5 -283.5t-269 -196t-341.5 -73.5q-155 0 -284 60l-193 -262zM387 600q0 -152 70 -250 l618 832q-67 30 -160 30q-102 0 -190.5 -38.5t-149 -101t-104 -143t-64 -164.5t-20.5 -165zM580 252q70 -31 153 -31q100 0 187 39t148.5 103t105.5 146.5t65 170.5t21 174q0 139 -64 231z" />
<glyph unicode="&#xd9;" horiz-adv-x="1421" d="M127 308.5q-15 91.5 8 211.5l160 914h268l-160 -912q-26 -146 39 -225.5t213 -79.5q146 0 238.5 79t118.5 226l159 912h269l-160 -914q-26 -145 -91 -254.5t-156.5 -173t-197.5 -94.5t-225 -31q-95 0 -175 19t-146.5 60t-106.5 106t-55 156.5zM614 1901h304l86 -279h-160 z" />
<glyph unicode="&#xda;" horiz-adv-x="1421" d="M127 308.5q-15 91.5 8 211.5l160 914h268l-160 -912q-26 -146 39 -225.5t213 -79.5q146 0 238.5 79t118.5 226l159 912h269l-160 -914q-26 -145 -91 -254.5t-156.5 -173t-197.5 -94.5t-225 -31q-95 0 -175 19t-146.5 60t-106.5 106t-55 156.5zM797 1565l184 276h301 l-324 -276h-161z" />
<glyph unicode="&#xdb;" horiz-adv-x="1421" d="M127 308.5q-15 91.5 8 211.5l160 914h268l-160 -912q-26 -146 39 -225.5t213 -79.5q146 0 238.5 79t118.5 226l159 912h269l-160 -914q-26 -145 -91 -254.5t-156.5 -173t-197.5 -94.5t-225 -31q-95 0 -175 19t-146.5 60t-106.5 106t-55 156.5zM573 1587l287 268h150 l180 -268h-203l-84 111l-117 -111h-213z" />
<glyph unicode="&#xdc;" horiz-adv-x="1421" d="M127 308.5q-15 91.5 8 211.5l160 914h268l-160 -912q-26 -146 39 -225.5t213 -79.5q146 0 238.5 79t118.5 226l159 912h269l-160 -914q-26 -145 -91 -254.5t-156.5 -173t-197.5 -94.5t-225 -31q-95 0 -175 19t-146.5 60t-106.5 106t-55 156.5zM598 1733q22 118 139 118 q56 0 87 -34t20 -101q-10 -61 -47.5 -90t-87.5 -29q-59 0 -90.5 35t-20.5 101zM981 1733q19 118 139 118q56 0 86 -34t19 -101q-10 -60 -47 -89.5t-86 -29.5q-60 0 -91.5 35t-19.5 101z" />
<glyph unicode="&#xdd;" horiz-adv-x="1323" d="M186 1434h314l219 -605l434 605h299l-647 -865l-100 -569h-273l100 571zM745 1573l185 276h301l-324 -276h-162z" />
<glyph unicode="&#xde;" horiz-adv-x="1210" d="M43 0l252 1434h274l-41 -230h224q210 0 316 -103t106 -272q0 -73 -20.5 -146.5t-66 -144.5t-112 -125.5t-166.5 -88t-221 -33.5h-221l-50 -291h-274zM410 522h188q139 0 211 78.5t72 187.5q0 89 -53 133t-152 44h-191z" />
<glyph unicode="&#xdf;" horiz-adv-x="1241" d="M53 0l199 1126q32 180 156 281.5t342 101.5q187 0 290 -74t103 -210q0 -65 -18 -118.5t-61 -101.5t-72.5 -73.5t-92.5 -72.5q-17 -13 -25 -19q-30 -24 -30 -43q0 -14 8 -22.5t29 -20.5q99 -59 127 -81q121 -94 129 -244v-21q0 -65 -16.5 -125.5t-53.5 -117t-91 -98.5 t-134.5 -67t-177.5 -25q-129 0 -224 50l56 198q81 -43 168 -43q93 0 150.5 55t57.5 164q0 28 -5.5 52.5t-13 42.5t-23 35.5t-27.5 28.5t-34.5 24.5t-36 20.5t-40.5 20.5l-39 19.5q-59 34 -59 98q0 43 12.5 72t42.5 53q20 17 61.5 48.5t63 50.5t47.5 48.5t37.5 63.5t11.5 74 q0 61 -41 96t-112 35q-73 0 -131 -44.5t-74 -133.5l-195 -1104h-264z" />
<glyph unicode="&#xe0;" horiz-adv-x="1230" d="M78 414q0 111 30 215t86.5 189.5t132 150t171.5 100t200 35.5q112 0 256 -41h217l-149 -830q-7 -36 5.5 -54.5t37.5 -18.5q33 0 47 2l-35 -152q-53 -26 -143 -26q-80 0 -118.5 51t-24.5 153q-58 -107 -140.5 -160t-199.5 -53q-167 0 -270 119t-103 320zM346 438 q0 -111 47.5 -179.5t153.5 -68.5q103 0 177.5 84.5t100.5 231.5l62 348q-74 33 -174 33q-114 0 -199.5 -68t-126.5 -168.5t-41 -212.5zM475 1546h303l86 -278h-159z" />
<glyph unicode="&#xe1;" horiz-adv-x="1230" d="M78 414q0 111 30 215t86.5 189.5t132 150t171.5 100t200 35.5q112 0 256 -41h217l-149 -830q-7 -36 5.5 -54.5t37.5 -18.5q33 0 47 2l-35 -152q-53 -26 -143 -26q-80 0 -118.5 51t-24.5 153q-58 -107 -140.5 -160t-199.5 -53q-167 0 -270 119t-103 320zM346 438 q0 -111 47.5 -179.5t153.5 -68.5q103 0 177.5 84.5t100.5 231.5l62 348q-74 33 -174 33q-114 0 -199.5 -68t-126.5 -168.5t-41 -212.5zM657 1210l185 277h301l-324 -277h-162z" />
<glyph unicode="&#xe2;" horiz-adv-x="1230" d="M78 414q0 111 30 215t86.5 189.5t132 150t171.5 100t200 35.5q112 0 256 -41h217l-149 -830q-7 -36 5.5 -54.5t37.5 -18.5q33 0 47 2l-35 -152q-53 -26 -143 -26q-80 0 -118.5 51t-24.5 153q-58 -107 -140.5 -160t-199.5 -53q-167 0 -270 119t-103 320zM346 438 q0 -111 47.5 -179.5t153.5 -68.5q103 0 177.5 84.5t100.5 231.5l62 348q-74 33 -174 33q-114 0 -199.5 -68t-126.5 -168.5t-41 -212.5zM436 1233l287 268h149l181 -268h-203l-84 110l-117 -110h-213z" />
<glyph unicode="&#xe3;" horiz-adv-x="1230" d="M78 414q0 111 30 215t86.5 189.5t132 150t171.5 100t200 35.5q112 0 256 -41h217l-149 -830q-7 -36 5.5 -54.5t37.5 -18.5q33 0 47 2l-35 -152q-53 -26 -143 -26q-80 0 -118.5 51t-24.5 153q-58 -107 -140.5 -160t-199.5 -53q-167 0 -270 119t-103 320zM346 438 q0 -111 47.5 -179.5t153.5 -68.5q103 0 177.5 84.5t100.5 231.5l62 348q-74 33 -174 33q-114 0 -199.5 -68t-126.5 -168.5t-41 -212.5zM414 1303q40 93 104 139.5t129 46.5q47 0 88.5 -20t74.5 -40t58 -20q60 0 117 98l125 -63q-39 -92 -100 -145.5t-133 -53.5 q-55 0 -124 39t-104 39q-72 0 -119 -90z" />
<glyph unicode="&#xe4;" horiz-adv-x="1230" d="M78 414q0 111 30 215t86.5 189.5t132 150t171.5 100t200 35.5q112 0 256 -41h217l-149 -830q-7 -36 5.5 -54.5t37.5 -18.5q33 0 47 2l-35 -152q-53 -26 -143 -26q-80 0 -118.5 51t-24.5 153q-58 -107 -140.5 -160t-199.5 -53q-167 0 -270 119t-103 320zM346 438 q0 -111 47.5 -179.5t153.5 -68.5q103 0 177.5 84.5t100.5 231.5l62 348q-74 33 -174 33q-114 0 -199.5 -68t-126.5 -168.5t-41 -212.5zM459 1378q11 61 48.5 90t90.5 29q56 0 87 -34t20 -101q-10 -60 -48 -89.5t-88 -29.5q-59 0 -90 34.5t-20 100.5zM842 1378q10 61 47 90 t92 29q56 0 85.5 -34t18.5 -101q-10 -60 -47 -89.5t-86 -29.5q-60 0 -91 34.5t-19 100.5z" />
<glyph unicode="&#xe5;" horiz-adv-x="1230" d="M78 414q0 111 30 215t86.5 189.5t132 150t171.5 100t200 35.5q112 0 256 -41h217l-149 -830q-7 -36 5.5 -54.5t37.5 -18.5q33 0 47 2l-35 -152q-53 -26 -143 -26q-80 0 -118.5 51t-24.5 153q-58 -107 -140.5 -160t-199.5 -53q-167 0 -270 119t-103 320zM346 438 q0 -111 47.5 -179.5t153.5 -68.5q103 0 177.5 84.5t100.5 231.5l62 348q-74 33 -174 33q-114 0 -199.5 -68t-126.5 -168.5t-41 -212.5zM602 1337q13 73 69.5 118.5t133.5 45.5q76 0 116 -45.5t27 -118.5q-12 -73 -68 -117t-132 -44q-77 0 -117.5 44t-28.5 117zM702 1337 q-5 -31 10.5 -52t49.5 -21t57 21t29 52q5 32 -11 53t-49 21q-35 0 -57.5 -20.5t-28.5 -53.5z" />
<glyph unicode="&#xe6;" horiz-adv-x="1806" d="M43 248q0 178 133 283.5t373 105.5q118 0 225 -21l10 64q20 113 -27.5 163t-158.5 50q-75 0 -157 -26t-146 -70l-74 161q97 69 214 107.5t237 38.5q145 0 218.5 -50.5t94.5 -172.5q166 223 463 223q152 0 241.5 -71t88.5 -195q-1 -92 -52 -165t-129.5 -116.5 t-179.5 -70.5t-198 -35t-189 -2q0 -56 13 -102.5t41.5 -85.5t80.5 -61t123 -22q97 0 182.5 32t147.5 85l78 -172q-174 -154 -445 -154q-150 0 -254.5 61.5t-142.5 194.5q-140 -256 -485 -256q-147 0 -236.5 72.5t-89.5 206.5zM291 297q0 -72 44.5 -102.5t113.5 -30.5 q108 0 197.5 84t111.5 203q-101 22 -207 22q-126 0 -193 -49t-67 -127zM1042 598q82 -1 163.5 7.5t162 28.5t130.5 59.5t50 94.5q0 43 -35.5 67t-99.5 24q-130 0 -231.5 -77t-139.5 -204z" />
<glyph unicode="&#xe7;" horiz-adv-x="1048" d="M84 451q0 95 25.5 188t78 177t126.5 148t178 102t225 38q232 0 368 -129l-129 -178q-100 86 -237 86q-92 0 -166 -36.5t-118 -95.5t-67.5 -129t-23.5 -143q0 -135 69.5 -210.5t184.5 -75.5q147 0 276 102l91 -176q-157 -136 -379 -148l-47 -63q7 0 18 1t14 1 q64 0 100 -35t36 -88q0 -90 -80 -161.5t-228 -84.5l-24 111q94 16 129 43t35 65q0 17 -11 28t-30 11q-17 0 -41 -12l-74 78l78 110q-177 24 -277 153.5t-100 322.5z" />
<glyph unicode="&#xe8;" horiz-adv-x="1116" d="M80 438q2 180 82.5 330.5t234 243t351.5 92.5q159 0 251.5 -69.5t90.5 -184.5q-1 -103 -60 -184t-159.5 -130.5t-226.5 -75.5t-267 -26q-31 0 -45 2q6 -243 268 -243q99 0 184 30.5t142 83.5l92 -176q-188 -162 -465 -162q-221 0 -347.5 125t-125.5 344zM352 596 q4 0 11.5 -1t11.5 -1q137 0 246 23t174 67.5t65 103.5q0 43 -35.5 67t-99.5 24q-132 0 -233 -78t-140 -205zM473 1546h303l86 -278h-160z" />
<glyph unicode="&#xe9;" horiz-adv-x="1116" d="M80 438q2 180 82.5 330.5t234 243t351.5 92.5q159 0 251.5 -69.5t90.5 -184.5q-1 -103 -60 -184t-159.5 -130.5t-226.5 -75.5t-267 -26q-31 0 -45 2q6 -243 268 -243q99 0 184 30.5t142 83.5l92 -176q-188 -162 -465 -162q-221 0 -347.5 125t-125.5 344zM352 596 q4 0 11.5 -1t11.5 -1q137 0 246 23t174 67.5t65 103.5q0 43 -35.5 67t-99.5 24q-132 0 -233 -78t-140 -205zM655 1210l185 277h301l-324 -277h-162z" />
<glyph unicode="&#xea;" horiz-adv-x="1116" d="M80 438q2 180 82.5 330.5t234 243t351.5 92.5q159 0 251.5 -69.5t90.5 -184.5q-1 -103 -60 -184t-159.5 -130.5t-226.5 -75.5t-267 -26q-31 0 -45 2q6 -243 268 -243q99 0 184 30.5t142 83.5l92 -176q-188 -162 -465 -162q-221 0 -347.5 125t-125.5 344zM352 596 q4 0 11.5 -1t11.5 -1q137 0 246 23t174 67.5t65 103.5q0 43 -35.5 67t-99.5 24q-132 0 -233 -78t-140 -205zM432 1233l287 268h149l181 -268h-203l-84 110l-117 -110h-213z" />
<glyph unicode="&#xeb;" horiz-adv-x="1116" d="M80 438q2 180 82.5 330.5t234 243t351.5 92.5q159 0 251.5 -69.5t90.5 -184.5q-1 -103 -60 -184t-159.5 -130.5t-226.5 -75.5t-267 -26q-31 0 -45 2q6 -243 268 -243q99 0 184 30.5t142 83.5l92 -176q-188 -162 -465 -162q-221 0 -347.5 125t-125.5 344zM352 596 q4 0 11.5 -1t11.5 -1q137 0 246 23t174 67.5t65 103.5q0 43 -35.5 67t-99.5 24q-132 0 -233 -78t-140 -205zM457 1378q11 61 48.5 90t90.5 29q56 0 86.5 -34t19.5 -101q-10 -61 -47.5 -90t-87.5 -29q-59 0 -90 34.5t-20 100.5zM840 1378q10 61 47 90t92 29q56 0 85.5 -34 t18.5 -101q-10 -60 -47 -89.5t-86 -29.5q-60 0 -91 34.5t-19 100.5z" />
<glyph unicode="&#xec;" horiz-adv-x="585" d="M86 203l156 870h260l-150 -833q-4 -28 7 -43t34 -15q42 0 60 6l-37 -194q-66 -19 -154 -19q-39 0 -73 12.5t-62 38t-39.5 71.5t-1.5 106zM109 1540h303l86 -278h-160z" />
<glyph unicode="&#xed;" horiz-adv-x="585" d="M86 203l156 870h260l-150 -833q-4 -28 7 -43t34 -15q42 0 60 6l-37 -194q-66 -19 -154 -19q-39 0 -73 12.5t-62 38t-39.5 71.5t-1.5 106zM293 1204l184 277h301l-323 -277h-162z" />
<glyph unicode="&#xee;" horiz-adv-x="585" d="M70 1227l286 268h150l180 -268h-203l-84 110l-116 -110h-213zM86 203l156 870h260l-150 -833q-4 -28 7 -43t34 -15q42 0 60 6l-37 -194q-66 -19 -154 -19q-39 0 -73 12.5t-62 38t-39.5 71.5t-1.5 106z" />
<glyph unicode="&#xef;" horiz-adv-x="585" d="M86 203l156 870h260l-150 -833q-4 -28 7 -43t34 -15q42 0 60 6l-37 -194q-66 -19 -154 -19q-39 0 -73 12.5t-62 38t-39.5 71.5t-1.5 106zM94 1372q11 61 48.5 90t90.5 29q56 0 87 -34t20 -101q-10 -61 -47.5 -90t-87.5 -29q-59 0 -90.5 34.5t-20.5 100.5zM477 1372 q10 61 47 90t92 29q56 0 86 -34t19 -101q-10 -60 -47 -89.5t-86 -29.5q-60 0 -91.5 34.5t-19.5 100.5z" />
<glyph unicode="&#xf0;" horiz-adv-x="1236" d="M94 500q18 166 96 302.5t210 219t292 82.5q181 0 269 -133q-29 161 -136 284l-241 -104l-37 100l196 86q-47 42 -127 88l166 138q101 -61 176 -133l203 88l35 -103l-160 -69q198 -248 158 -611q-11 -120 -40 -228.5t-83 -208t-127.5 -171.5t-180 -115t-233.5 -43 q-222 0 -341 139t-95 392zM360 514q-19 -143 37.5 -229t177.5 -86q136 0 225 106t109 264q19 136 -37.5 220.5t-175.5 84.5q-134 0 -225.5 -99t-110.5 -261z" />
<glyph unicode="&#xf1;" horiz-adv-x="1294" d="M86 0l158 848q11 74 -54 74q-24 0 -51 -9l29 166q69 19 131 19q81 0 123 -46.5t35 -140.5l-17 -82h4q89 147 195 211t238 64q164 0 242 -93t46 -257l-102 -523q-6 -29 7 -46t38 -17q21 0 49 4l-35 -166q-52 -20 -149 -20q-104 0 -146.5 58t-19.5 171l94 481 q18 86 -14.5 133.5t-114.5 47.5q-122 0 -219.5 -122t-136.5 -341l-76 -414h-254zM424 1303q40 93 104 139.5t129 46.5q47 0 89 -20t75 -40t58 -20q34 0 61 25t55 73l125 -63q-39 -92 -100 -145.5t-133 -53.5q-55 0 -124 39t-104 39q-71 0 -118 -90z" />
<glyph unicode="&#xf2;" horiz-adv-x="1228" d="M82 444q0 129 42.5 245.5t120.5 207.5t199 145t267 54q206 0 336.5 -121.5t130.5 -341.5q0 -126 -43.5 -243.5t-122 -209.5t-198.5 -147.5t-263 -55.5q-208 0 -338.5 127t-130.5 340zM342 465q0 -126 60 -197t169 -71q154 0 250.5 122.5t96.5 290.5q0 130 -61 198.5 t-175 68.5q-103 0 -182.5 -60t-118.5 -152.5t-39 -199.5zM465 1540h303l86 -278h-160z" />
<glyph unicode="&#xf3;" horiz-adv-x="1228" d="M82 444q0 129 42.5 245.5t120.5 207.5t199 145t267 54q206 0 336.5 -121.5t130.5 -341.5q0 -126 -43.5 -243.5t-122 -209.5t-198.5 -147.5t-263 -55.5q-208 0 -338.5 127t-130.5 340zM342 465q0 -126 60 -197t169 -71q154 0 250.5 122.5t96.5 290.5q0 130 -61 198.5 t-175 68.5q-103 0 -182.5 -60t-118.5 -152.5t-39 -199.5zM647 1204l184 277h302l-324 -277h-162z" />
<glyph unicode="&#xf4;" horiz-adv-x="1228" d="M82 444q0 129 42.5 245.5t120.5 207.5t199 145t267 54q206 0 336.5 -121.5t130.5 -341.5q0 -126 -43.5 -243.5t-122 -209.5t-198.5 -147.5t-263 -55.5q-208 0 -338.5 127t-130.5 340zM342 465q0 -126 60 -197t169 -71q154 0 250.5 122.5t96.5 290.5q0 130 -61 198.5 t-175 68.5q-103 0 -182.5 -60t-118.5 -152.5t-39 -199.5zM424 1227l287 268h149l180 -268h-202l-84 110l-117 -110h-213z" />
<glyph unicode="&#xf5;" horiz-adv-x="1228" d="M82 444q0 129 42.5 245.5t120.5 207.5t199 145t267 54q206 0 336.5 -121.5t130.5 -341.5q0 -126 -43.5 -243.5t-122 -209.5t-198.5 -147.5t-263 -55.5q-208 0 -338.5 127t-130.5 340zM342 465q0 -126 60 -197t169 -71q154 0 250.5 122.5t96.5 290.5q0 130 -61 198.5 t-175 68.5q-103 0 -182.5 -60t-118.5 -152.5t-39 -199.5zM403 1296q40 93 104.5 140t129.5 47q47 0 88.5 -20t74.5 -40t58 -20q60 0 117 98l125 -63q-39 -92 -100.5 -145.5t-133.5 -53.5q-56 0 -124 39t-103 39q-72 0 -119 -90z" />
<glyph unicode="&#xf6;" horiz-adv-x="1228" d="M82 444q0 129 42.5 245.5t120.5 207.5t199 145t267 54q206 0 336.5 -121.5t130.5 -341.5q0 -126 -43.5 -243.5t-122 -209.5t-198.5 -147.5t-263 -55.5q-208 0 -338.5 127t-130.5 340zM342 465q0 -126 60 -197t169 -71q154 0 250.5 122.5t96.5 290.5q0 130 -61 198.5 t-175 68.5q-103 0 -182.5 -60t-118.5 -152.5t-39 -199.5zM449 1372q11 61 48.5 90t90.5 29q56 0 86.5 -34t19.5 -101q-10 -61 -47.5 -90t-87.5 -29q-59 0 -90 34.5t-20 100.5zM831 1372q10 61 47.5 90t92.5 29q56 0 85.5 -34t18.5 -101q-10 -60 -47 -89.5t-86 -29.5 q-60 0 -91.5 34.5t-19.5 100.5z" />
<glyph unicode="&#xf7;" horiz-adv-x="1138" d="M74 459l28 159h969l-29 -159h-968zM354 113q0 78 49 119.5t115 41.5q49 0 82 -28t33 -82q0 -78 -48 -121t-114 -43q-50 0 -83.5 29.5t-33.5 83.5zM498 922q0 79 49 121t115 42q49 0 81.5 -28.5t32.5 -83.5q0 -78 -49 -120t-115 -42q-49 0 -81.5 28.5t-32.5 82.5z" />
<glyph unicode="&#xf8;" horiz-adv-x="1249" d="M80 -127l158 209q-156 130 -156 362q0 129 42.5 245.5t120.5 207.5t199 145t267 54q126 0 219 -43l149 217l117 -66l-162 -217q144 -128 144 -354q0 -126 -43.5 -243.5t-122 -209.5t-198.5 -147.5t-263 -55.5q-118 0 -203 39l-153 -217zM342 465q0 -115 49 -182l404 571 q-54 23 -113 23q-103 0 -182.5 -60t-118.5 -152.5t-39 -199.5zM483 211q38 -14 88 -14q154 0 250.5 122.5t96.5 290.5q0 103 -37 164z" />
<glyph unicode="&#xf9;" horiz-adv-x="1251" d="M121 915l33 164q70 25 163 25q217 0 168 -238l-88 -473q-19 -100 20 -145t115 -45q45 0 90 19.5t89 58.5t78.5 107.5t50.5 158.5l94 532h256l-156 -872q-6 -27 5 -42t30 -15q50 0 64 2l-35 -152q-52 -25 -146 -25q-80 0 -120.5 34.5t-30.5 125.5l16 78h-10 q-122 -238 -373 -238q-80 0 -141.5 22.5t-104.5 70.5t-56 124t5 183l90 477q7 36 -7.5 53t-43.5 17q-15 0 -55 -7zM463 1540h303l86 -278h-160z" />
<glyph unicode="&#xfa;" horiz-adv-x="1251" d="M121 915l33 164q70 25 163 25q217 0 168 -238l-88 -473q-19 -100 20 -145t115 -45q45 0 90 19.5t89 58.5t78.5 107.5t50.5 158.5l94 532h256l-156 -872q-6 -27 5 -42t30 -15q50 0 64 2l-35 -152q-52 -25 -146 -25q-80 0 -120.5 34.5t-30.5 125.5l16 78h-10 q-122 -238 -373 -238q-80 0 -141.5 22.5t-104.5 70.5t-56 124t5 183l90 477q7 36 -7.5 53t-43.5 17q-15 0 -55 -7zM645 1204l184 277h301l-323 -277h-162z" />
<glyph unicode="&#xfb;" horiz-adv-x="1251" d="M121 915l33 164q70 25 163 25q217 0 168 -238l-88 -473q-19 -100 20 -145t115 -45q45 0 90 19.5t89 58.5t78.5 107.5t50.5 158.5l94 532h256l-156 -872q-6 -27 5 -42t30 -15q50 0 64 2l-35 -152q-52 -25 -146 -25q-80 0 -120.5 34.5t-30.5 125.5l16 78h-10 q-122 -238 -373 -238q-80 0 -141.5 22.5t-104.5 70.5t-56 124t5 183l90 477q7 36 -7.5 53t-43.5 17q-15 0 -55 -7zM422 1227l287 268h149l180 -268h-202l-84 110l-117 -110h-213z" />
<glyph unicode="&#xfc;" horiz-adv-x="1251" d="M121 915l33 164q70 25 163 25q217 0 168 -238l-88 -473q-19 -100 20 -145t115 -45q45 0 90 19.5t89 58.5t78.5 107.5t50.5 158.5l94 532h256l-156 -872q-6 -27 5 -42t30 -15q50 0 64 2l-35 -152q-52 -25 -146 -25q-80 0 -120.5 34.5t-30.5 125.5l16 78h-10 q-122 -238 -373 -238q-80 0 -141.5 22.5t-104.5 70.5t-56 124t5 183l90 477q7 36 -7.5 53t-43.5 17q-15 0 -55 -7zM446 1372q11 61 49 90t91 29q56 0 86.5 -34t19.5 -101q-10 -61 -47.5 -90t-87.5 -29q-59 0 -90.5 34.5t-20.5 100.5zM829 1372q10 61 47.5 90t92.5 29 q56 0 85.5 -34t18.5 -101q-10 -60 -47 -89.5t-86 -29.5q-60 0 -91.5 34.5t-19.5 100.5z" />
<glyph unicode="&#xfd;" horiz-adv-x="1120" d="M-35 -399l62 190q68 -27 125 -27q60 0 106.5 43.5t87.5 131.5l51 100l-229 807q-11 41 -22.5 56.5t-36.5 15.5q-8 0 -16.5 -1t-17.5 -3t-14 -3l33 162q64 25 142 25q74 0 113 -36.5t57 -109.5l157 -667l373 788h272l-639 -1223q-81 -155 -171 -225.5t-222 -70.5 q-126 0 -211 47zM588 1210l184 277h301l-323 -277h-162z" />
<glyph unicode="&#xfe;" horiz-adv-x="1220" d="M-12 -422l346 1962h244l-115 -643h6q114 201 354 201q160 0 251 -117t91 -326q0 -126 -44 -249t-120 -220t-188.5 -157t-239.5 -60q-158 0 -245 72l-82 -463h-258zM362 244q64 -64 187 -64q151 0 253.5 134t102.5 317q0 119 -50 179t-140 60q-103 0 -185.5 -77 t-107.5 -222z" />
<glyph unicode="&#xff;" horiz-adv-x="1120" d="M-35 -399l62 190q68 -27 125 -27q60 0 106.5 43.5t87.5 131.5l51 100l-229 807q-11 41 -22.5 56.5t-36.5 15.5q-8 0 -16.5 -1t-17.5 -3t-14 -3l33 162q64 25 142 25q74 0 113 -36.5t57 -109.5l157 -667l373 788h272l-639 -1223q-81 -155 -171 -225.5t-222 -70.5 q-126 0 -211 47zM389 1378q11 61 48.5 90t90.5 29q56 0 87 -34t20 -101q-10 -61 -47.5 -90t-87.5 -29q-59 0 -90.5 34.5t-20.5 100.5zM772 1378q10 61 47 90t92 29q56 0 86 -34t19 -101q-10 -60 -47 -89.5t-86 -29.5q-60 0 -91.5 34.5t-19.5 100.5z" />
<glyph unicode="&#x152;" horiz-adv-x="1830" d="M115 723q25 142 83.5 259t140.5 200t186.5 140.5t222.5 84.5t247 27h850l-43 -240h-581l-64 -360h512l-39 -218h-512l-67 -376h583l-41 -240h-850q-162 0 -290 46t-215 134t-120.5 227t-2.5 316zM395 723q-40 -228 56 -357.5t303 -129.5h22l172 972h-22 q-208 0 -349 -128.5t-182 -356.5z" />
<glyph unicode="&#x153;" horiz-adv-x="1781" d="M74 406q0 186 77.5 346.5t214 256t298.5 95.5q137 0 214 -61.5t107 -190.5q75 117 190.5 184.5t251.5 67.5q143 0 226.5 -67.5t83.5 -184.5q0 -95 -51 -174t-136.5 -131t-197 -80.5t-234.5 -28.5q-53 0 -82 2q-17 -247 207 -247q172 0 340 104l53 -186 q-201 -134 -417 -134q-300 0 -363 228q-157 -228 -405 -228q-171 0 -274 118t-103 311zM334 434q0 -110 46.5 -173.5t131.5 -63.5q89 0 163 63.5t114 165t40 215.5q0 111 -46.5 173.5t-133.5 62.5q-91 0 -164.5 -65t-112 -165.5t-38.5 -212.5zM1057 602q50 -4 78 -4 q155 0 262.5 55t107.5 142q0 39 -27.5 61.5t-80.5 22.5q-115 0 -206.5 -73.5t-133.5 -203.5z" />
<glyph unicode="&#x178;" horiz-adv-x="1323" d="M186 1434h314l219 -605l434 605h299l-647 -865l-100 -569h-273l100 571zM547 1741q11 61 48.5 90t90.5 29q56 0 87 -34.5t20 -101.5q-10 -60 -48 -89t-88 -29q-59 0 -90 34.5t-20 100.5zM930 1741q10 61 47 90t92 29q56 0 86 -34.5t19 -101.5q-10 -59 -47 -88.5 t-87 -29.5q-60 0 -91 34.5t-19 100.5z" />
<glyph unicode="&#x2c6;" horiz-adv-x="716" d="M172 1227l287 268h149l180 -268h-202l-84 110l-117 -110h-213z" />
<glyph unicode="&#x2dc;" horiz-adv-x="1187" d="M389 1296q40 93 104.5 140t129.5 47q47 0 88.5 -20t74.5 -40t58 -20q60 0 117 98l124 -63q-39 -92 -100 -145.5t-133 -53.5q-56 0 -124 39t-103 39q-72 0 -119 -90z" />
<glyph unicode="&#x2000;" horiz-adv-x="954" />
<glyph unicode="&#x2001;" horiz-adv-x="1909" />
<glyph unicode="&#x2002;" horiz-adv-x="954" />
<glyph unicode="&#x2003;" horiz-adv-x="1909" />
<glyph unicode="&#x2004;" horiz-adv-x="636" />
<glyph unicode="&#x2005;" horiz-adv-x="477" />
<glyph unicode="&#x2006;" horiz-adv-x="318" />
<glyph unicode="&#x2007;" horiz-adv-x="318" />
<glyph unicode="&#x2008;" horiz-adv-x="238" />
<glyph unicode="&#x2009;" horiz-adv-x="381" />
<glyph unicode="&#x200a;" horiz-adv-x="106" />
<glyph unicode="&#x2010;" horiz-adv-x="851" d="M102 528l29 168h647l-30 -168h-646z" />
<glyph unicode="&#x2011;" horiz-adv-x="851" d="M102 528l29 168h647l-30 -168h-646z" />
<glyph unicode="&#x2012;" horiz-adv-x="851" d="M102 528l29 168h647l-30 -168h-646z" />
<glyph unicode="&#x2013;" horiz-adv-x="1202" d="M115 424l39 223h936l-41 -223h-934z" />
<glyph unicode="&#x2014;" horiz-adv-x="1837" d="M125 424l41 223h1544l-39 -223h-1546z" />
<glyph unicode="&#x2018;" horiz-adv-x="505" d="M160 1153q30 182 250 324l112 -56q-99 -86 -135 -157q61 -15 88.5 -61.5t16.5 -110.5q-14 -76 -64.5 -115t-118.5 -39q-78 0 -122.5 58.5t-26.5 156.5z" />
<glyph unicode="&#x2019;" horiz-adv-x="546" d="M209 989q96 81 133 158q-59 15 -86 60.5t-16 109.5q13 76 63 116t117 40q80 0 124 -59.5t27 -158.5q-34 -184 -247 -323z" />
<glyph unicode="&#x201a;" horiz-adv-x="552" d="M6 -174q92 77 141 160q-61 4 -91.5 52t-18.5 116q13 76 62 114.5t116 38.5q81 0 125.5 -58t26.5 -157q-29 -179 -248 -323z" />
<glyph unicode="&#x201c;" horiz-adv-x="917" d="M213 1083q13 222 274 379l99 -37q-111 -92 -152 -188q54 -5 88.5 -42t30.5 -103q-4 -83 -61 -134t-132 -51q-71 0 -111 47t-36 129zM621 1083q13 221 276 379l96 -37q-108 -89 -149 -186q52 -5 86.5 -43t30.5 -104q-3 -83 -59.5 -134t-133.5 -51q-70 0 -110.5 47 t-36.5 129z" />
<glyph unicode="&#x201d;" horiz-adv-x="917" d="M152 942q110 91 151 188q-54 3 -89.5 41.5t-29.5 104.5q3 84 60 135t133 51q70 0 110.5 -47.5t36.5 -128.5q-12 -223 -274 -381zM561 942q113 98 150 191q-53 3 -88 39.5t-31 103.5q4 85 60.5 135.5t133.5 50.5q70 0 111 -47.5t37 -128.5q-16 -225 -277 -381z" />
<glyph unicode="&#x201e;" horiz-adv-x="995" d="M23 -174q94 82 133 156q-60 15 -87 62t-16 110q13 76 62 114.5t116 38.5q81 0 125.5 -58t26.5 -157q-34 -182 -248 -323zM434 -174q95 82 131 156q-59 17 -85 63t-15 109q13 76 61.5 114.5t116.5 38.5q81 0 126 -58t26 -157q-29 -177 -248 -323z" />
<glyph unicode="&#x2022;" horiz-adv-x="528" d="M233 610q13 73 60 108.5t106 35.5q71 0 115.5 -47.5t28.5 -133.5q-11 -70 -60 -106.5t-108 -36.5q-70 0 -113 48t-29 132z" />
<glyph unicode="&#x2026;" horiz-adv-x="1816" d="M201 158q13 78 63.5 115.5t116.5 37.5q78 0 122.5 -49t28.5 -141q-13 -78 -63.5 -117t-116.5 -39q-77 0 -122 51t-29 142zM766 158q14 78 64.5 115.5t115.5 37.5q78 0 123 -49t29 -141q-13 -78 -63.5 -117t-116.5 -39q-76 0 -122 51.5t-30 141.5zM1331 158q14 77 65 115 t115 38q78 0 124 -49t32 -141q-14 -78 -65 -117t-117 -39q-76 0 -123 51.5t-31 141.5z" />
<glyph unicode="&#x202f;" horiz-adv-x="381" />
<glyph unicode="&#x2039;" horiz-adv-x="624" d="M47 518l393 404l123 -101l-303 -301l197 -299l-138 -102z" />
<glyph unicode="&#x203a;" horiz-adv-x="628" d="M57 225l303 295l-196 293l139 109l270 -408l-403 -401z" />
<glyph unicode="&#x205f;" horiz-adv-x="477" />
<glyph unicode="&#x20ac;" horiz-adv-x="1480" d="M51 489l27 150h147q5 71 19 156h-138l27 151h154q91 249 294.5 380.5t462.5 131.5q149 0 263.5 -43t179.5 -110l-174 -187q-135 105 -305 105q-138 0 -251.5 -72t-178.5 -205h657l-59 -151h-648q-15 -73 -18 -156h608l-59 -150h-537q28 -130 107 -201t194 -71 q195 0 375 125l102 -174q-96 -81 -236 -136t-302 -55q-222 0 -369 131t-168 381h-174z" />
<glyph unicode="&#x2122;" horiz-adv-x="1847" d="M98 1241l33 193h684l-33 -193h-241l-117 -655h-205l117 655h-238zM745 586l152 848h174l193 -437l378 437h138l-150 -848h-205l82 463l-264 -324h-72l-143 322l-82 -461h-201z" />
<glyph unicode="&#xe000;" horiz-adv-x="1095" d="M0 0v1096h1096v-1096h-1096z" />
<glyph unicode="&#xfb01;" horiz-adv-x="1325" d="M-188 -418l84 203q62 -12 88 -12q71 0 118.5 39t61.5 106l166 948h-172l39 213h170l26 162q29 157 140 244.5t284 87.5q124 0 232.5 -21.5t173.5 -56.5l-74 -205q-143 70 -311 70q-161 0 -187 -131l-26 -150h340q131 0 185 -47t34 -155l-119 -625q-6 -34 7 -52t40 -18 q35 0 70 17l-37 -197q-83 -27 -158 -27q-41 0 -78 13t-66.5 39t-42.5 71.5t-3 104.5l112 596q8 39 -5 53t-58 14h-260l-174 -977q-28 -155 -148.5 -246.5t-292.5 -91.5q-22 0 -46 3t-43.5 7.5t-35 9.5t-24.5 8z" />
<glyph unicode="&#xfb02;" horiz-adv-x="1333" d="M-182 -360l55 202q65 -12 88 -12q71 0 119.5 40t60.5 105l158 891h-172l37 213h170l28 162q29 158 138.5 245t283.5 87q320 0 519 -131l-228 -1190q-6 -34 6.5 -52t38.5 -18q37 0 70 17l-37 -197q-79 -27 -156 -27q-42 0 -79.5 13t-67.5 39t-42.5 71.5t-0.5 104.5 l219 1120q-25 18 -89.5 27.5t-133.5 9.5q-74 0 -123 -32.5t-62 -98.5l-26 -150h254l-37 -213h-256l-164 -917q-28 -156 -147.5 -247t-292.5 -91q-84 0 -131 29z" />
<glyph unicode="&#xfb03;" horiz-adv-x="1916" d="M-195 -424l56 209q61 -12 88 -12q71 0 118.5 39t59.5 106l168 948h-148l37 213h148l26 162q29 157 139.5 244.5t282.5 87.5q48 0 92.5 -7.5t65.5 -15.5l20 -8l-81 -196l-9 2q-8 1 -21 3t-28 4t-32 3.5t-31 1.5q-52 0 -90 -28t-45 -77l-33 -176h373l26 162 q29 158 139.5 245t284.5 87q123 0 231 -21.5t173 -56.5l-76 -205q-140 70 -309 70q-74 0 -123 -32.5t-62 -98.5l-28 -150h339q45 0 78.5 -5t61 -16.5t45 -31t27 -47.5t8.5 -67.5t-11 -90.5l-106 -569q-12 -70 45 -70q37 0 70 17l-37 -197q-79 -27 -156 -27 q-92 0 -151.5 57.5t-38.5 170.5l108 581q9 44 -6 63t-57 19h-258l-162 -917q-28 -156 -148 -247t-293 -91q-86 0 -133 29l58 202q62 -12 88 -12q71 0 119 40t59 105l158 891h-373l-174 -977q-28 -154 -147 -246t-287 -92q-86 0 -138 25z" />
<glyph unicode="&#xfb04;" horiz-adv-x="1918" d="M-195 -424l56 209q61 -12 88 -12q71 0 118.5 39t59.5 106l168 948h-148l37 213h148l26 162q29 157 139.5 244.5t282.5 87.5q48 0 92.5 -7.5t65.5 -15.5l20 -8l-81 -196l-9 2q-8 1 -21 3t-28 4t-32 3.5t-31 1.5q-52 0 -90 -28t-45 -77l-33 -176h373l26 162 q29 158 139.5 245t284.5 87q149 0 262 -33.5t211 -124.5l-225 -1163q-12 -70 45 -70q37 0 70 17l-37 -197q-79 -27 -156 -27q-92 0 -151.5 57.5t-38.5 170.5l219 1120q-52 37 -180 37q-74 0 -123 -32.5t-62 -98.5l-28 -150h256l-39 -213h-256l-162 -917q-28 -156 -148 -247 t-293 -91q-86 0 -133 29l58 202q62 -12 88 -12q71 0 119 40t59 105l158 891h-373l-174 -977q-28 -154 -147 -246t-287 -92q-86 0 -138 25z" />
</font>
</defs>
</svg>
